<svg class="ocean_fish" xmlns="http://www.w3.org/2000/svg" xmlns:xlink="http://www.w3.org/1999/xlink" viewBox="0 0 395.19 443.67"><defs><style>.cls-1,.cls-10{fill:#fff;}.cls-2{isolation:isolate;}.cls-3,.cls-5{fill:#0096d5;}.cls-3{mix-blend-mode:multiply;}.cls-4{fill:#ec297b;}.cls-6{fill:#eb008b;}.cls-7{fill:#fff100;}.cls-8{fill:none;}.cls-9{fill:#f9ec31;}.cls-10{opacity:0.5;mix-blend-mode:screen;}.cls-11{opacity:0.73;}.cls-12{mask:url(#mask);}.cls-13{fill:#fefefe;}.cls-14{mask:url(#mask-2);}</style><mask id="mask" x="75.7" y="305.48" width="5.63" height="5.9" maskUnits="userSpaceOnUse"><g id="mask-42"><polygon id="path-41" class="cls-1" points="75.7 305.48 81.33 305.48 81.33 311.38 75.7 311.38 75.7 305.48"/></g></mask><mask id="mask-2" x="218.19" y="12.71" width="72.84" height="71.51" maskUnits="userSpaceOnUse"><g id="mask-44"><polygon id="path-43" class="cls-1" points="218.19 12.71 291.03 12.71 291.03 84.22 218.19 84.22 218.19 12.71"/></g></mask></defs><title>fish-bubbles</title><g class="cls-2"><g id="fish-web"><path class="cls-3" d="M27,329.67A24.69,24.69,0,0,0,25.33,336a24.31,24.31,0,0,0,0,6.15c-4.9,3-11.93,7.78-15.09,12.69l19.25,14.35,5.37,4.5,44.53,5.34c15.54,1.86,21-10.25,22.89-18.05l11.89,1.21a60.91,60.91,0,0,0,3.63,18.11,66.21,66.21,0,0,1-1.31-17.88l9.35.95a60.94,60.94,0,0,0,3.63,18.33,66.66,66.66,0,0,1-1.3-18.1l9.33.95a60.67,60.67,0,0,0,3.64,18.55,66.66,66.66,0,0,1-1.29-18.31l9.32.94a60.37,60.37,0,0,0,3.64,18.77A66.91,66.91,0,0,1,151.58,366l9.3.94a60.16,60.16,0,0,0,3.64,19,66.78,66.78,0,0,1-1.25-18.75l9.27.94a60,60,0,0,0,3.66,19.21,67.06,67.06,0,0,1-1.25-19l9.26.94a59.79,59.79,0,0,0,3.66,19.43,67.35,67.35,0,0,1-1.23-19.18l9.24.93a59.38,59.38,0,0,0,3.66,19.65,67.21,67.21,0,0,1-1.21-19.4l9.23.93a59.2,59.2,0,0,0,3.65,19.87A67.14,67.14,0,0,1,210,371.91l9.08.92c-.15,5.07.85,11.3,3.94,18.81a53,53,0,0,1-1.37-18.55l9.12.93c-.2,5.1.78,11.4,3.92,19a52.85,52.85,0,0,1-1.35-18.77l9.11.92c-.16,4.42.9,9.9,4.23,16.61a39.48,39.48,0,0,1-1.64-16.34l9.09.92c-.2,4.45.83,10,4.22,16.82a39.77,39.77,0,0,1-1.62-16.56l9.08.92c-.25,4.49.77,10.11,4.21,17a39.75,39.75,0,0,1-1.59-16.77l9.06.92c-.29,4.52.71,10.21,4.2,17.25a39.8,39.8,0,0,1-1.56-17l9,.92c-.33,4.55.65,10.32,4.19,17.48a39.9,39.9,0,0,1-1.53-17.22l2.61.27,12.57,16-4.76-15.21,3.5.35-3.49-.46,8.23-13.67L294.43,380.1l-2.53-.33a34.3,34.3,0,0,1,5.29-14.1,18.09,18.09,0,0,0-7.95,13.74l-9-1.19a34.3,34.3,0,0,1,5.26-14,18.09,18.09,0,0,0-7.93,13.61l-9-1.19a34.18,34.18,0,0,1,5.24-13.82,18.09,18.09,0,0,0-7.92,13.47l-9-1.19a34.17,34.17,0,0,1,5.22-13.68,18.09,18.09,0,0,0-7.91,13.32l-9-1.18a34.14,34.14,0,0,1,5.2-13.54,18,18,0,0,0-7.89,13.18l-9-1.19a45.73,45.73,0,0,1,5.53-16.18s-6.93,4.7-8.2,15.83l-9-1.19a45.46,45.46,0,0,1,5.5-16s-6.87,4.66-8.19,15.68l-9-1.19a59.37,59.37,0,0,1,6-19.95s-7.53,5.88-8.62,19.6l-9-1.19a59.42,59.42,0,0,1,6-19.81s-7.49,5.84-8.62,19.46l-9-1.2a59.23,59.23,0,0,1,6-19.66s-7.44,5.79-8.61,19.32l-9-1.2a59.15,59.15,0,0,1,5.94-19.53s-7.39,5.76-8.6,19.18l-9-1.19a59.22,59.22,0,0,1,5.93-19.39s-7.33,5.72-8.58,19l-9-1.19A59.11,59.11,0,0,1,158,342s-7.28,5.68-8.57,18.89l-9-1.19a62.12,62.12,0,0,1,3-12.25h0l.15-.29a56.2,56.2,0,0,1,2.83-6.56s-7.22,5.64-8.55,18.75l-9-1.19a59.21,59.21,0,0,1,5.87-19s-7.16,5.6-8.53,18.6l-9-1.19a58.91,58.91,0,0,1,5.85-18.8,20.39,20.39,0,0,0-4.32,5.33l-.49,1.29-.21,0a33,33,0,0,0-3.5,11.86l-11.11-1.47v0s3.22-21.67-19.4-24.38a67.72,67.72,0,0,0-11.71-.29,24.29,24.29,0,0,0-4.06-6.85l51.44,6.15,13.65-26.89,4.23-8.34-13.74,35.73,5.41.65,13.65-26.89,11-21.66-18.93,49.23,5,.59,24.64-48.53L145.51,332.5l5.07.61,13.64-26.88h0l4.24-8.35L154.73,333.6l14.51,1.74,30.19,6.19,10.29-17.63L201.82,342l7.27,1.49,8.66-14.85-6.64,15.26,7.4,1.52,6.21-10.65L220,345.74l6.43,1.31,4.35-7.45-3.34,7.66L313.85,365l-.31,2.54,34.91-36-32.26,41.48.78.45,36.83-37.95L322,376.39l1.54.87L359.76,340l-31.2,40.12,1.83,1,35.52-36.59-30.63,39.38,6.45,3.68-7.14,2.05L355,435.18l-25.86-44-2,.59L348,438.17l-26.34-44.78-1.69.49,21.2,47.19-26.81-45.58-.87.25L335,443.67l-25.4-43.2-.19,1.53-51.08-1.87,1.78,10.25L257,400.08l-6.31-.23,2.4,13.78L249,399.79l-7.3-.27,3.2,18.42-5.51-18.5-7.16-.27,3.74,21.5-6.43-21.6-6-.21,4.26,24.55-7.35-24.67-7.31-.26,5.16,29.67-8.88-29.81-6.12-.22,5,28.83-8.63-29-5.08-.18,3.84,22.09-6.61-22.2-29.92-1.09-35.61-4.27a68.6,68.6,0,0,1,15.33,17.22l-27.32,7.11A92.49,92.49,0,0,1,98.3,389l-42.86-5.14-24.37-2.92L0,358.75A61.83,61.83,0,0,1,27,329.67Z"/><path class="cls-4" d="M119.08,352.61a9.06,9.06,0,1,1-7.92-10.08A9.06,9.06,0,0,1,119.08,352.61Z"/><path class="cls-5" d="M76.49,350.94a11.92,11.92,0,1,1-10.42-13.26A11.93,11.93,0,0,1,76.49,350.94Z"/><path class="cls-6" d="M69.87,341.37A20.5,20.5,0,1,1,52,318.56,20.5,20.5,0,0,1,69.87,341.37Z"/><path class="cls-7" d="M61.3,327.67a16.67,16.67,0,0,1-31.46,5.49A20.51,20.51,0,0,1,61,321.94,16.59,16.59,0,0,1,61.3,327.67Z"/><path class="cls-8" d="M69.87,341.37a20.5,20.5,0,0,1-40.71-4.88,21.12,21.12,0,0,1,.68-3.33,20.5,20.5,0,0,1,40,8.21Z"/><path class="cls-5" d="M59.8,340.16a10.36,10.36,0,1,1-9-11.52A10.35,10.35,0,0,1,59.8,340.16Z"/><path class="cls-5" d="M6.61,343.16s14.14,6.06,29.19,23.09l-32-19.69Z"/><path class="cls-9" d="M160.92,368.4a3,3,0,1,1-2.66-3.39A3,3,0,0,1,160.92,368.4Z"/><path class="cls-9" d="M167.16,378.21a3,3,0,1,1-2.66-3.38A3,3,0,0,1,167.16,378.21Z"/><path class="cls-9" d="M174.66,384.92a2.14,2.14,0,1,1-1.87-2.37A2.13,2.13,0,0,1,174.66,384.92Z"/><path class="cls-9" d="M170.4,369.22a2.14,2.14,0,1,1-1.87-2.38A2.14,2.14,0,0,1,170.4,369.22Z"/><path class="cls-9" d="M184,381.21a2.14,2.14,0,1,1-1.87-2.38A2.14,2.14,0,0,1,184,381.21Z"/><path class="cls-4" d="M173.28,363.15a2.14,2.14,0,1,1-1.87-2.38A2.14,2.14,0,0,1,173.28,363.15Z"/><path class="cls-4" d="M163.13,378.71a2.14,2.14,0,1,1-1.87-2.38A2.14,2.14,0,0,1,163.13,378.71Z"/><path class="cls-4" d="M185.82,383.59a2.14,2.14,0,1,1-1.87-2.38A2.15,2.15,0,0,1,185.82,383.59Z"/><path class="cls-4" d="M199.9,378.82a2.14,2.14,0,1,1-1.87-2.38A2.14,2.14,0,0,1,199.9,378.82Z"/><path class="cls-4" d="M217.7,384.27a2.14,2.14,0,1,1-1.87-2.37A2.14,2.14,0,0,1,217.7,384.27Z"/><path class="cls-4" d="M242.82,389.44a2.14,2.14,0,1,1-1.87-2.37A2.13,2.13,0,0,1,242.82,389.44Z"/><path class="cls-4" d="M230.9,380.57a2.14,2.14,0,1,1-1.87-2.38A2.15,2.15,0,0,1,230.9,380.57Z"/><path class="cls-9" d="M192.34,376.71a2.14,2.14,0,1,1-1.87-2.38A2.14,2.14,0,0,1,192.34,376.71Z"/><path class="cls-9" d="M208.42,378.64a2.14,2.14,0,1,1-1.87-2.37A2.12,2.12,0,0,1,208.42,378.64Z"/><path class="cls-9" d="M213,385.87a2.14,2.14,0,1,1-1.87-2.38A2.14,2.14,0,0,1,213,385.87Z"/><path class="cls-9" d="M234.65,385.14a2.14,2.14,0,1,1-1.86-2.38A2.14,2.14,0,0,1,234.65,385.14Z"/><path class="cls-9" d="M253,385.44a2.14,2.14,0,1,1-1.87-2.38A2.15,2.15,0,0,1,253,385.44Z"/><path class="cls-9" d="M181.07,372.29a3,3,0,1,1-2.66-3.38A3,3,0,0,1,181.07,372.29Z"/><path class="cls-9" d="M200.28,383.17a3,3,0,1,1-2.66-3.38A3,3,0,0,1,200.28,383.17Z"/><path class="cls-9" d="M224.64,377.52a3,3,0,1,1-2.66-3.39A3,3,0,0,1,224.64,377.52Z"/><path class="cls-9" d="M97.43,360.75a9.06,9.06,0,1,1-7.92-10.08A9.05,9.05,0,0,1,97.43,360.75Z"/><path class="cls-9" d="M147.89,360.29,134.55,383c-.68,0-1.38,0-2.08,0l13.72-23.38C146.77,359.81,147.34,360.05,147.89,360.29Z"/><path class="cls-9" d="M141.31,357.89l-14.47,24.65-.63-.06-1.35-.18,14.64-24.92C140.11,357.54,140.72,357.71,141.31,357.89Z"/><path class="cls-9" d="M134.31,356.21l-14.77,25.17-1.87-.43,14.72-25.07Q133.37,356,134.31,356.21Z"/><path class="cls-9" d="M126.91,355.21l-14.27,24.32c-.6-.2-1.19-.41-1.76-.62l14-23.85Z"/><path class="cls-9" d="M119.07,355l-12.89,22c-.56-.27-1.1-.56-1.62-.84l12.34-21Z"/><path class="cls-9" d="M159.73,372.8c-.29,2.42-2.07,4.51-4.94,6.15l4.83-8.22A6.28,6.28,0,0,1,159.73,372.8Z"/><path class="cls-9" d="M158.88,368.79l-6.71,11.43a25.87,25.87,0,0,1-2.66.92l8.24-14A11,11,0,0,1,158.88,368.79Z"/><path class="cls-9" d="M153.92,363.64l-11.09,18.88c-.73.1-1.49.18-2.26.24l11.82-20.12C152.93,363,153.44,363.3,153.92,363.64Z"/><path class="cls-9" d="M130.66,355.63,116,380.54c-.61-.17-1.22-.34-1.81-.52l14.46-24.63.77.08Z"/><path class="cls-9" d="M123.05,355l-13.7,23.35c-.58-.23-1.15-.47-1.7-.72L121,354.93C121.65,354.93,122.35,355,123.05,355Z"/><path class="cls-9" d="M114.94,355.19l-11.78,20.05c-.53-.32-1-.66-1.52-1l11-18.8C113.41,355.34,114.17,355.25,114.94,355.19Z"/><path class="cls-9" d="M110.61,355.76l-10.27,17.49A16.87,16.87,0,0,1,99,372l9.24-15.75C109,356.07,109.78,355.9,110.61,355.76Z"/><path class="cls-9" d="M106,356.85l-8.15,13.88A10.34,10.34,0,0,1,96.71,369l6.59-11.22A25.22,25.22,0,0,1,106,356.85Z"/><path class="cls-9" d="M156.61,365.86l-9.32,15.87q-1.15.27-2.4.48l10.33-17.59C155.72,365,156.19,365.44,156.61,365.86Z"/><path class="cls-9" d="M151,361.82l-12.38,21.09c-.71,0-1.43.07-2.16.08l12.91-22C149.93,361.25,150.47,361.54,151,361.82Z"/><path class="cls-9" d="M144.66,359l-14,23.88c-.67,0-1.35-.09-2-.16l14.29-24.34C143.5,358.58,144.09,358.78,144.66,359Z"/><path class="cls-9" d="M137.86,357l-14.72,25.09c-.65-.1-1.29-.22-1.92-.34L136,356.54Z"/><polygon class="cls-9" points="308.51 367.36 167.3 339.57 109.2 331.81 166.16 343.71 308.51 367.36"/><polygon class="cls-9" points="311.91 375.07 330.3 385.57 311.31 377.37 311.91 375.07"/><path class="cls-10" d="M118.07,411.45s-14.36-15.56-17.91-27.58Z"/><path class="cls-10" d="M124.63,409.23s-14.36-15.56-17.9-27.58Z"/><path class="cls-10" d="M130,407.42s-10.92-11.83-13.61-21Z"/><path class="cls-9" d="M47.83,334a2.9,2.9,0,1,1-3.55-2.08A2.91,2.91,0,0,1,47.83,334Z"/><g id="bubbles" class="cls-11"><g id="Group-3"><g class="cls-12"><path id="Fill-1" class="cls-13" d="M81.33,308.42a2.82,2.82,0,1,1-2.81-2.94,2.89,2.89,0,0,1,2.81,2.94"/></g></g><path id="Fill-4" class="cls-13" d="M96.72,285.38a4.09,4.09,0,1,1-4.09-4.09,4.09,4.09,0,0,1,4.09,4.09"/><path id="Fill-6" class="cls-13" d="M134.08,237.49a7.59,7.59,0,1,1-7.59-7.59,7.59,7.59,0,0,1,7.59,7.59"/><path id="Fill-8" class="cls-13" d="M151.59,194.28a8.76,8.76,0,1,1-8.76-8.76,8.76,8.76,0,0,1,8.76,8.76"/><path id="Fill-10" class="cls-13" d="M193.62,133a18.68,18.68,0,1,1-18.68-18.69A18.68,18.68,0,0,1,193.62,133"/><path id="Fill-12" class="cls-13" d="M194.79,161a15.18,15.18,0,1,1-15.18-15.18A15.18,15.18,0,0,1,194.79,161"/><path id="Fill-14" class="cls-13" d="M261.34,99.67a25.1,25.1,0,1,1-25.1-25.11,25.11,25.11,0,0,1,25.1,25.11"/><g id="Group-18"><g class="cls-14"><path id="Fill-16" class="cls-13" d="M291,48.46c0,19.75-16.3,35.76-36.42,35.76s-36.42-16-36.42-35.76,16.31-35.75,36.42-35.75S291,28.71,291,48.46"/></g></g></g></g></g></svg>