<svg xmlns="http://www.w3.org/2000/svg" width="579" height="114"><g fill="none" fill-rule="evenodd"><path fill="#34A7CE" d="M93 76.6c0 8.6-6.3 12.5-14 8.6L9.2 50.4c-7.6-3.9-7.6-10.2 0-14L79 1.4c7.7-3.8 14 .1 14 8.7v66.5z"/><path fill="#EA5C3E" d="M0 76.6c0 8.6 6.3 12.5 14 8.6l69.8-34.8c7.6-3.9 7.6-10.2 0-14L14 1.4C6.3-2.3 0 1.6 0 10.2v66.5z"/><path fill="#FFF" d="M46.5 69l37.3-18.6c7.6-3.9 7.6-10.2 0-14L46.5 17.7 9.2 36.4c-7.6 3.8-7.6 10.1 0 14L46.5 69z"/><path fill="#303034" d="M60.7 42.9a14.4 14.4 0 1 0-28.8 0 14.4 14.4 0 0 0 28.8 0"/><path fill="#FFF" d="M128.5 67.1l20.4-57h15.4L184 65.4l-14.2 2.3-4.2-12.3h-19.5L142.3 67h-13.8zm27.3-42.5l-6.4 19.7h12.8l-6.4-19.7zm63.9 39.7a23.3 23.3 0 0 1-12.8 3.6c-11.6 0-19.5-7.6-19.5-20.6 0-14.1 9-21.1 20-21.1 4.9 0 8.7 1.2 12 3l-1.7 10.6a16 16 0 0 0-9-3c-5.1 0-8.7 3.4-8.7 10.2 0 6.9 4 10.2 9 10.2 3 0 5.8-.8 9.2-3l1.5 10.1zm37.1 0A23.3 23.3 0 0 1 244 68c-11.6 0-19.5-7.6-19.5-20.6 0-14.1 9-21.1 20-21.1 5 0 8.8 1.2 12 3l-1.7 10.6a16 16 0 0 0-9-3c-5 0-8.7 3.4-8.7 10.2 0 6.9 4 10.2 9 10.2 3 0 5.9-.8 9.2-3l1.5 10.1zm41.6-.9a29.1 29.1 0 0 1-16 4.6c-12.1 0-20.7-6.5-20.7-20.9 0-13.1 8-21.1 19-21.1 12.3 0 17.8 9.2 17.8 20.9l-.2 3.2H274c.6 6.4 4.4 8.8 10 8.8 4.4 0 8.7-1.6 13.2-4.3l1.2 8.8zm-18-29.3c-3.6 0-6 3-6.5 9.2h12.7c-.4-6.1-2.5-9.2-6.3-9.2zm56.2 20.6c0 8.6-5.8 13.2-16.5 13.2-6.4 0-12.4-1.8-16.6-4l1.5-9.5a31 31 0 0 0 15.2 4.8c3.4 0 5-1.3 5-3.2 0-2-1.1-3-6.8-4.3-10-2.7-14.3-5.5-14.3-13S309.6 26 319.6 26c5.4 0 10.6 1 14.8 3l-1.6 9.5a29.2 29.2 0 0 0-13.2-3.8c-2.9 0-4.3 1-4.3 2.6 0 1.8 1.2 2.7 6.8 4.2 10.7 2.8 14.5 5.6 14.5 13.1zm38.1 0c0 8.6-5.8 13.2-16.5 13.2-6.4 0-12.4-1.8-16.6-4l1.5-9.5a31 31 0 0 0 15.2 4.8c3.4 0 5-1.3 5-3.2 0-2-1-3-6.7-4.3-10.2-2.7-14.4-5.5-14.4-13S347.8 26 357.7 26c5.4 0 10.6 1 14.8 3l-1.6 9.5a29.2 29.2 0 0 0-13.2-3.8c-2.9 0-4.3 1-4.3 2.6 0 1.8 1.2 2.7 6.8 4.2 10.7 2.8 14.5 5.6 14.5 13.1zM395 15c0 4-3 6.7-7 6.7s-7.1-2.7-7.1-6.7c0-4.1 3.1-6.8 7-6.8 4 0 7.1 2.7 7.1 6.8zm-.8 52.2h-12.5V26.8h12.5v40.3zM440.5 46c0 15-8 21.7-20.4 21.7-6.5 0-12.5-1-17.2-2.8V9.7l12.4-2v23.6A15 15 0 0 1 426 26c8.2 0 14.4 6.3 14.4 20zm-12.4.8c0-6.7-2.5-9.6-6-9.6-2.6 0-4.8 1.6-6.8 3.9v15.9c1.6.5 2.7.8 4.6.8 4.8 0 8.2-3 8.2-11zM461 15c0 4-3 6.7-7 6.7s-7.1-2.7-7.1-6.7c0-4.1 3-6.8 7-6.8s7 2.7 7 6.8zM460 67h-12.5V26.8H460v40.3zm21.5 0H469V9.7l12.5-2v59.4zM503.9 15c0 4-3 6.7-7 6.7s-7.1-2.7-7.1-6.7c0-4.1 3.1-6.8 7-6.8 4.1 0 7.1 2.7 7.1 6.8zm-.8 52.2h-12.5V26.8h12.5v40.3zM536 67c-2 .6-3.9.8-7.2.8-8.6 0-14.6-3.1-14.6-13.4V36.9h-5.3V27h5.3v-12l12.3-2v14h7.7l1.5 10h-9.2v15.4c0 3.2 1.7 4.8 5 4.8 1 0 2.1-.2 3-.4l1.5 10.2zm42.8-40L564.3 68c-3.6 10.5-8.4 14-17 14-2.7 0-3.8-.2-5-.5l-1.6-10c1.4.4 2.7.6 5 .6 2.8 0 5.4-1 6.8-4.2l.3-.8-14.6-39.4 13.3-1.6 7.7 25.4 7.3-24.8h12.2zM157.5 87l-6.4 21.4h-2.4L142.9 91l-5.7 17.4h-2.4l-6.3-21 2.9-.6 4.7 16.9 5.5-16.7h2.8l5.5 16.7 4.6-16.7h3zm15.1 19.6a9.1 9.1 0 0 1-5.8 2c-3.9 0-6.9-2.3-6.9-7.7 0-4.8 2.8-7.7 6.5-7.7 4.3 0 6.3 3.3 6.3 7.4v.6h-10c0 3.4 1.7 5 4.3 5a8 8 0 0 0 5.2-2l.4 2.4zm-6.2-11.2c-1.7 0-3.2 1.2-3.6 3.7h7c-.2-2.3-1.3-3.7-3.4-3.7zm22.7 5c0 5.5-3 8-7.2 8-2.2 0-3.8-.3-5.8-.9v-21l2.8-.5v9.3c1-1 2.4-2 4.4-2 3.2 0 5.8 2.3 5.8 7.2zm-2.8.2c0-3.2-1.4-5-3.4-5-1.5 0-2.9 1-4 2.5v7.5c1 .3 1.6.5 3 .5 2.8 0 4.4-1.7 4.4-5.5zm11.8 7.7l8.3-21.4h2.9l8.2 21-2.9.6-2.5-6.6h-8.6l-2.4 6.4h-3zm9.7-18l-3.4 9h6.8l-3.4-9zm24.7 18h-2.2l-.4-2.2a7.8 7.8 0 0 1-5.2 2.5c-2.8 0-4.2-1.7-4.2-4.4V93.5h2.7v10c0 1.6.7 2.6 2.3 2.6 1.4 0 2.9-1 4.2-2.4V93.5h2.8v14.8zm16.5 0h-2.2l-.3-2.2a6 6 0 0 1-4.8 2.5c-3.1 0-5.8-2.3-5.8-7.3 0-5.4 3.1-8 6.7-8 1.4 0 2.8.3 3.7.7v-7.6l2.7-.4v22.3zm-2.7-4.8v-7a7 7 0 0 0-3.6-.8c-2.3 0-4 1.9-4 5.5 0 3.2 1.5 5 3.4 5 1.7 0 3-1 4.2-2.7zM256.7 89c0 1-.8 1.7-1.7 1.7-1 0-1.8-.8-1.8-1.7 0-1 .8-1.8 1.8-1.8s1.7.8 1.7 1.8zm-.4 19.4h-2.7V93.5h2.7v14.8zm11.6 0l-2 .2c-2.7 0-4.4-1-4.4-3.9V96h-2.2v-2.4h2.2v-4.9l2.7-.4v5.3h3.2l.4 2.4h-3.6v8.2c0 1.2.5 2 2 2l1.3-.1.4 2.3zm23-7.8c0 5.4-3 8-7.2 8-2.2 0-3.8-.4-5.7-1v-21l2.7-.5v9.3c1-1 2.4-2 4.4-2 3.2 0 5.8 2.3 5.8 7.2zm-2.7.1c0-3.2-1.5-5-3.5-5-1.5 0-2.9 1-4 2.5v7.5c1 .3 1.6.5 3 .5 2.9 0 4.5-1.7 4.5-5.5zm18.2-7l-6 16.2c-1.2 3.3-2.8 4-5 4h-1.1l-.4-2.5 1.4.2c1.3 0 2.1-.6 2.7-2.2l.4-1-5.4-14.5 2.8-.5 4 11.7 3.8-11.5h2.8zm21.8 9c0 3.6-2.7 6-6.7 6-2.3 0-4.4-.6-6-1.5l.5-3c1.4 1 3.4 1.9 5.6 1.9 2.2 0 3.7-1.2 3.7-3.3 0-2-.8-2.7-4-4.2-4-1.8-5.5-3.1-5.5-6.2 0-3.4 2.6-5.6 6.4-5.6 2 0 3.6.5 4.9 1.2l-.5 3a7.5 7.5 0 0 0-4.5-1.6c-2.4 0-3.5 1.2-3.5 2.8 0 1.7.8 2.4 4 4 4.2 1.8 5.6 3.2 5.6 6.4zm16.7-2.1c0 5.4-3 8-6.6 8-1.5 0-2.8-.3-3.7-.7v5.8l-2.8.4V93.5h2.2l.4 2.2a6.2 6.2 0 0 1 4.7-2.5c3.2 0 5.8 2.4 5.8 7.3zm-2.7.1c0-3.2-1.5-5-3.5-5-1.7 0-3 1-4.1 2.7v7a7 7 0 0 0 3.6.8c2.3 0 4-1.9 4-5.5zm17.3 7.7h-2.2l-.3-2a7 7 0 0 1-5.2 2.3c-2.6 0-4.3-1.6-4.3-4.1 0-3.7 3.2-5.2 9.3-5.8v-.6c0-1.9-1.1-2.5-2.8-2.5-1.8 0-3.5.5-5 1.2l-.5-2.3c1.8-.7 3.5-1.3 5.7-1.3 3.6 0 5.3 1.5 5.3 4.8v10.3zm-2.7-4v-3.5c-5.4.5-6.6 2-6.6 3.5 0 1.2.8 2 2.2 2 1.6 0 3.2-.8 4.4-2zm15.2-8.4a6.7 6.7 0 0 0-5.5 3.7v8.7h-2.7V93.5h2.2l.4 3c1-1.6 2.8-3.1 5.2-3.3l.4 2.7zm15 12.1l-3 .5-6.4-8v7.8h-2.8V86.4l2.8-.4v13.7l5.7-6.2h3.3l-6.2 6.6 6.7 8zm15.6-7.5c0 5.4-3 8-7.2 8-2.3 0-3.8-.4-5.8-1v-21l2.8-.5v9.3c1-1 2.4-2 4.4-2 3.2 0 5.8 2.3 5.8 7.2zm-2.8.1c0-3.2-1.4-5-3.4-5-1.6 0-3 1-4 2.5v7.5c.9.3 1.6.5 3 .5 2.8 0 4.4-1.7 4.4-5.5zm19 .3c0 4.9-2.9 7.7-6.8 7.7-4 0-6.8-2.8-6.8-7.7 0-4.8 2.9-7.7 6.8-7.7 4 0 6.8 2.9 6.8 7.7zm-2.8 0c0-3-1.4-5.4-4-5.4-2.7 0-4 2.3-4 5.4 0 3 1.4 5.4 4 5.4 2.7 0 4-2.3 4-5.4zm17.8 7.2l-2.7.4-3.7-5.9-3.5 5.7H421l5-7.6-4.7-7 2.7-.4 3.4 5.4 3.2-5.2h2.9l-4.6 7.1 4.9 7.5z"/></g></svg>