<svg xmlns="http://www.w3.org/2000/svg" id="lion" class="desert__lion" viewBox="0 0 883.6 1232.5">
  <style>
.t-gold{fill:#f1c586}.t-chocolate{fill:#8a7967}.t-beige{fill:#d0a26a}.t-chocolate-variant{fill:#726658}.t-white{fill:#fff}.t-dark-brown{fill:#231f20}
  </style>
  <path class="t-gold tail-body" d="M697.9 1073.8V782.1c0-48.4 39.3-87.7 87.7-87.7 48.4 0 87.7 39.3 87.7 87.7h-30.6c0-15.1-6-29.7-16.7-40.3a57 57 0 0 0-97.3 40.3v291.7h-30.8z"/>
  <path class="t-gold hind-legs" d="M760.2 1179.1c0-.1 0-.1 0 0-.1-2.4-.5-4.6-1.2-6.8v-.1c-.7-2.3-1.7-4.6-3-6.7v-.1c-1.5-2.5-3.4-4.8-5.6-6.7l-.1-.1c-3.8-3.4-8.4-5.7-13.3-6.7l-.5-.1c-1.9-.4-3.8-.6-5.7-.6-.5 0-.9 0-1.4.1v-114.8c0-2.2-.1-4.4-.2-6.6v-.1c-.1-2.2-.3-4.5-.6-6.7v-.1c-.3-2.3-.6-4.5-1-6.7v-.1c-.4-2.3-.9-4.5-1.5-6.7v-.1c-.6-2.3-1.2-4.5-1.9-6.7v-.1c-.7-2.3-1.5-4.5-2.4-6.7v-.1c-.9-2.3-1.8-4.5-2.9-6.7v-.1a140 140 0 0 0-3.4-6.7v-.1c-1.3-2.3-2.6-4.5-4-6.7v-.1c-1.5-2.3-3.1-4.5-4.7-6.7l-.1-.1c-1.8-2.3-3.6-4.5-5.6-6.7 0 0 0-.1-.1-.1-2.1-2.3-4.3-4.6-6.5-6.7l-.1-.1c-2.5-2.4-5.1-4.6-7.8-6.7l-.1-.1c-3.1-2.4-6.3-4.6-9.6-6.7l-.1-.1a108 108 0 0 0-12.6-6.7l-.2.3c-6.3-2.8-12.9-5.1-19.6-6.7l-.4-.1c-16.9-4-34.6-4-51.5 0H158.3c-12-2-24.2-2-36.2 0l-.5.1c-8.1 1.4-15.9 3.6-23.5 6.7-.1 0-.2 0-.2.1-4.7 1.9-9.2 4.2-13.6 6.7-.1 0-.1.1-.2.1-3.5 2-6.9 4.2-10.2 6.6l-.1.1c-2.8 2.1-5.6 4.3-8.2 6.7l-.1.1c-2.4 2.1-4.6 4.4-6.8 6.7l-.1.1c-2 2.1-3.9 4.4-5.8 6.7l-.1.1c-1.7 2.2-3.4 4.4-4.9 6.7v.1c-1.5 2.2-2.9 4.4-4.2 6.7v.1c-1.3 2.2-2.5 4.4-3.5 6.7v.1c-1.1 2.2-2.1 4.4-3 6.7v.1c-.9 2.2-1.7 4.4-2.5 6.7v.1c-.7 2.2-1.4 4.4-2 6.7v.1c-.6 2.2-1.1 4.4-1.5 6.7v.1c-.4 2.2-.8 4.4-1.1 6.7v.1c-.3 2.2-.5 4.4-.7 6.7v.1c-.2 2.2-.2 4.4-.3 6.7v116.2c-6.1.1-12 2.1-16.9 5.8l-.1.1c-2.5 1.9-4.7 4.1-6.5 6.7 0 0 0 .1-.1.1-1.4 2.1-2.6 4.3-3.5 6.7v.1c-.9 2.2-1.5 4.4-1.8 6.7v.1c-.1 1.1-.2 2.1-.2 3.2v50.2h251.6v-6h255v6h253.6V1181c.1-.8.1-1.4.1-1.9z"/>
  <path class="t-chocolate hind-legs__stripes" d="M760.2 1179.1c0-.1 0-.1 0 0l-760-.1v.1c-.1 1.1-.2 2.1-.2 3.2v3.6h760.2v-6.8zM0 1192.5h760.2v6.9H0v-6.9zm0 13.6h760.2v6.9H0v-6.9zm0 13.6h760.2v6.9H0v-6.9zm28.8-149.3h700.6v6.9H28.8v-6.9zm0 13.6h700.6v6.9H28.8v-6.9zm0 13.6h700.6v6.9H28.8v-6.9zm0 13.5h700.6v6.9H28.8v-6.9zm0 13.6h700.6v6.9H28.8v-6.9zm0 13.6h700.6v6.9H28.8v-6.9zm721.4 20.3c-3.8-3.4-8.4-5.7-13.3-6.7l-.5-.1H28.8v1c-6.1.1-12 2.1-16.9 5.8l-.1.1 738.4-.1zm8.8 13.6c-.7-2.3-1.7-4.6-3-6.7v-.1H5.3s0 .1-.1.1c-1.4 2.1-2.6 4.3-3.5 6.7v.1l757.3-.1zm-52.5-203.3c-1.8-2.3-3.6-4.5-5.6-6.7 0 0 0-.1-.1-.1h-642l-.1.1c-2 2.1-3.9 4.4-5.8 6.7l-.1.1 653.7-.1zm8.9 13.5c-1.3-2.3-2.6-4.5-4-6.7v-.1H48v.1c-1.5 2.2-2.9 4.4-4.2 6.7v.1l671.6-.1c0 .1 0 .1 0 0zm6.4 13.6c-.9-2.3-1.8-4.5-2.9-6.7v-.1H40.1v.1c-1.1 2.2-2.1 4.4-3 6.7v.1l684.7-.1c0 .1 0 0 0 0zm4.3 13.6c-.6-2.3-1.2-4.5-1.9-6.7v-.1H34.5v.1c-.7 2.2-1.4 4.4-2 6.7v.1l693.6-.1zm2.5 13.5c-.3-2.3-.6-4.5-1-6.7v-.1H31v.1c-.4 2.2-.8 4.4-1.1 6.7v.1l698.7-.1c0 .1 0 .1 0 0zm.8 13.5c0-2.2-.1-4.4-.2-6.6v-.1H29.1v.1c-.2 2.2-.2 4.4-.3 6.7v.1h700.5v-.2zm-700.6 6.9h700.6v6.9H28.8v-6.9zm0 13.6h700.6v6.9H28.8v-6.9zm615-128.9c-16.9-4-34.6-4-51.5 0h-434c-12-2-24.2-2-36.2 0l-.5.1h522.5l-.3-.1zm32.7 13.5a108 108 0 0 0-12.6-6.7l-.2-.1H98.1c-.1 0-.2 0-.2.1-4.7 1.9-9.2 4.2-13.6 6.7-.1 0-.1.1-.2.1h592.5s-.1 0-.1-.1zm17.7 13.6c-2.5-2.4-5.1-4.6-7.8-6.7l-.1-.1H74l-.1.1c-2.8 2.1-5.6 4.3-8.2 6.7l-.1.1 628.6-.1z"/>
  <path class="fore-legs t-gold" d="M623.8 1232.5V802.3c0-135.1-109.5-244.6-244.6-244.6S134.5 667.2 134.5 802.3v430.2h489.3z"/>
  <path class="mane t-chocolate" d="M739.5 423.7C666.3 107.9 315.8 0 315.8 0l423.7 423.7z"/>
  <path class="mane t-chocolate" d="M715.7 447.5C642.5 131.7 292 23.8 292 23.8l423.7 423.7z"/>
  <path class="mane t-chocolate" d="M739.5 551.9c-73.2-315.8-423.7-423.7-423.7-423.7l423.7 423.7z"/>
  <path class="mane feet t-chocolate" d="M715.7 575.6C642.5 259.9 292 151.9 292 151.9l423.7 423.7zm-509.4 526.2c-43.1 0-78 34.9-78 78h156.1c-.1-43.1-35-78-78.1-78zm345 0c-43.1 0-78 34.9-78 77.9v.1h156.1a78 78 0 0 0-78.1-78c.1 0 .1 0 0 0zM.3 423.7C73.5 107.9 424 0 424 0L.3 423.7z"/>
  <path class="mane t-chocolate"  d="M24.1 447.5C97.3 131.7 447.8 23.8 447.8 23.8L24.1 447.5z"/>
  <path class="mane t-chocolate"  d="M.3 551.9C73.5 236.1 424 128.2 424 128.2L.3 551.9z"/>
  <path class="mane t-chocolate" d="M24.1 575.6c73.2-315.8 423.7-423.7 423.7-423.7L24.1 575.6z"/>
  <path d="M374.3 509.8l-5.5-4-4.9 4.6-5.9-3.3-4.3 5.2-6.3-2.5-3.6 5.7-6.6-1.7-2.9 6.1-6.7-.8-2.1 6.5h-6.8l-1.3 6.7-6.7.8-.4 6.8-6.6 1.7.4 6.8-6.3 2.5 1.3 6.7-6 3.3 2.1 6.4-5.5 4 2.9 6.1-4.9 4.6 3.6 5.7-4.3 5.2 4.3 5.2-3.6 5.7 4.9 4.6-2.9 6.1 5.5 4-2.1 6.5 6 3.3-1.3 6.7 6.3 2.5-.4 6.8 6.6 1.7.4 6.8 6.7.8 1.3 6.7h6.8l2.1 6.5 6.7-.8 2.9 6.1 6.6-1.7 3.6 5.7 6.3-2.5 4.3 5.2 5.9-3.3 4.9 4.6 5.5-4 5.5 4 4.9-4.6 6 3.3 4.3-5.2 6.3 2.5 3.6-5.7 6.6 1.7 2.9-6.1 6.7.8 2.1-6.5h6.8l1.3-6.7 6.7-.8.4-6.8 6.6-1.7-.4-6.8 6.3-2.5-1.3-6.7 5.9-3.3-2.1-6.5 5.5-4-2.9-6.1 5-4.6-3.6-5.7 4.3-5.2-4.3-5.2 3.6-5.7-5-4.6 2.9-6.1-5.5-4 2.1-6.4-5.9-3.3 1.3-6.7-6.3-2.5.4-6.8-6.6-1.7-.4-6.8-6.7-.8-1.3-6.7h-6.8l-2.1-6.5-6.7.8-2.9-6.1-6.6 1.7-3.6-5.7-6.3 2.5-4.3-5.2-6 3.3-4.9-4.6-5.5 4z" class="t-beige"/>
  <path d="M407.1 817.6l-2.8 3.4-6-3.3h-7.8l-6.2 5.8-8-5.8h-4.1l-8 5.8-6.2-5.8h-7.8l-6 3.3-2.7-3.3-.1-.1h65.7zm114.2-108.3l-2.1 1.5 1.6 5v.1H227.6v-.1l1.6-5-2.1-1.5-.4-.3h294.9l-.3.3z" class="torso-stripes t-chocolate-variant"/>
  <path d="M523 722.7l-10.8 5.9.2.8v.1H236.2v-.1l.1-.8-10.8-5.9-.1-.1 297.6.1.1-.1-.1.1z" class="torso-stripes t-chocolate"/>
  <path d="M513.7 736.3H234.9v-.1l1.3-6.7v-.1h276.2v.1l1.3 6.8z" class="t-gold"/>
  <path d="M514.6 740.8l-5.4 2.1-.2.1H239.6l-.2-.1-5.4-2.1.9-4.6v-.1h278.8v.1l.9 4.6z" class="torso-stripes t-chocolate"/>
  <path d="M508.9 743l-5.9 2.3.3 4.3v.1h-258v-.1l.3-4.3-5.9-2.3-.2-.1h269.8l-.4.1z" class="t-gold"/>
  <path d="M503.7 756.5l-258.9.1v-.1l.4-6.7v-.1h258v.1l.5 6.7z" class="t-chocolate torso-stripes"/>
  <path d="M503.8 757.8l-12 3.1-.1 2.4v.1H257v-.1l-.1-2.4-12-3.1.1-1.2v-.1h258.9v.1l-.1 1.2z" class="t-gold"/>
  <path d="M491.6 763.3l-.4 6.8v.1H257.4v-.1l-.4-6.7v-.1h234.6z" class="t-chocolate torso-stripes"/>
  <path d="M491.2 770.1l-.2 3.2-12.3 1.5-.4 2v.1h-208v-.1l-.4-2-12.3-1.5-.2-3.1v-.1h233.8z" class="t-gold"/>
  <path d="M478.3 776.9l-1.3 6.8v.1H271.6v-.1l-1.3-6.7v-.1h208z" class="t-chocolate torso-stripes"/>
  <path d="M477 783.7l-.6 3.4H464l-1.1 3.4v.1h-177v-.1l-1.1-3.4h-12.4l-.6-3.3v-.1H477z" class="t-gold"/>
  <path d="M462.8 790.4l-2.2 6.8v.1H288v-.1l-2.2-6.7v-.1h177z" class="t-chocolate torso-stripes"/>
  <path d="M460.6 797.2l-.5 1.6-12.2-1.5h-.1l-3.2 6.7v.1H304v-.1l-3.1-6.7h-.1l-12.2 1.5-.5-1.5v-.1h172.5z" class="t-gold"/>
  <path d="M444.6 804l-2.1 4.5-12-3.1-3.4 5.3-.1.1H321.6l-.1-.1-3.4-5.3-12 3.1-2.1-4.5v-.1h140.6z" class="t-chocolate torso-stripes"/>
  <path d="M427 810.8l-3.3 5.2-11.6-4.6-5.1 6.2-.1.1h-65.4l-.1-.1-5.1-6.2-11.6 4.6-3.2-5.1-.1-.1H427z" class="t-gold torso-stripes"/>
  <path d="M523.1 604.8l-.9 2.7v.1H226.4v-.1l-.9-2.7 7.3-4 .1-.1h282.9l.1.1 7.2 4z" class="t-chocolate-variant"/>
  <path d="M522.2 607.5l-2.2 6.8v.1H228.6v-.1l-2.2-6.7v-.1h295.8z" class="t-beige"/>
  <path d="M525.5 621.1H223l.1-.1 6.1-4.5-.7-2.2v-.1H520v.1l-.7 2.2 6.1 4.5.1.1z" class="t-chocolate-variant"/>
  <path d="M529.3 623.9l-1.8 3.9v.1H221.1v-.1l-1.9-3.9 3.8-2.8.1-.1h302.3l.1.1 3.8 2.8z" class="t-beige"/>
  <path d="M527.5 627.8l-3.2 6.8v.1h-300v-.1l-3.1-6.7v-.1h306.3z" class="t-chocolate-variant"/>
  <path d="M530.8 641.5h-313l.1-.1 6.7-6.3-.2-.4v-.1h300v.1l-.2.4 6.6 6.4z" class="t-gold"/>
  <path d="M533.1 643.6l-2.9 4.5-.1.1H218.4l-.1-.1-2.9-4.5 2.3-2.2.1-.1h312.9l.1.1 2.3 2.2z" class="t-chocolate torso-stripes"/>
  <path d="M530.2 648.3l-3.7 5.9.7.8.1.1H221.4l.1-.1.7-.8-3.7-5.9-.1-.1 311.8.1z" class="t-gold"/>
  <path d="M532.8 661.8h-317l.1-.1 5.6-6.7.1-.1h305.7l.1.1 5.4 6.8z" class="t-chocolate torso-stripes"/>
  <path d="M534.4 663.7l-4 4.8-.1.1h-312l-.1-.1-4-4.8 1.5-1.9.1-.1h316.9l.1.1 1.6 1.9z" class="t-gold"/>
  <path d="M530.3 668.6l-3.8 4.7 1.3 2v.1h-307l.1-.1 1.3-2-3.9-4.7-.1-.1 312.1.1z" class="t-chocolate torso-stripes"/>
  <path d="M532.1 682.2H216.5l.1-.1 4.3-6.7.1-.1h306.9v.1l4.2 6.8z" class="t-gold"/>
  <path d="M533.1 683.8l-5.5 5.1-.1.1H221l-.1-.1-5.4-5.1 1-1.6.1-.1h315.5v.1l1 1.6z" class="t-chocolate"/>
  <path d="M527.6 689l-3.5 3.3 1.6 3.4v.1H222.9v-.1l1.6-3.4-3.5-3.3-.1-.1 306.7.1z" class="t-gold"/>
  <path d="M528.9 702.5H219.7v-.1l3.2-6.7v-.1h302.7v.1l3.3 6.8z" class="t-chocolate torso-stripes"/>
  <path d="M529.3 703.5l-7.6 5.5-.4.3H227.2l-.4-.3-7.6-5.5.5-1v-.1h309.1v.1l.5 1z" class="t-gold"/>
  <path d="M386.3 505.8h-24.1l.1-.1 1.9-1.8 2.5 1.8h15.2l2.5-1.8 1.9 1.8v.1z" class="t-beige"/>
  <path d="M424.5 512.6H324.1l.1-.1.7-1.1 2.7 1.1h11.8l5-6 10.9 6 7.1-6.6.1-.1h23.9l.1.1 7 6.6 10.9-6 5 6h11.8l2.7-1.1.6 1.2z" class="t-chocolate-variant"/>
  <path d="M442.7 519.4H305.9v-.1l.2-.4 1.7.4h12l4.2-6.7.1-.1h100.3l.1.1 4.2 6.7h12l1.7-.4.3.5z" class="t-beige"/>
  <path d="M445.9 526.2H302.7v-.1l3.1-6.7v-.1h136.8v.1l3.3 6.8z" class="t-chocolate-variant"/>
  <path d="M461.5 533H287.1v-.1l1.4-4.3 12.3 1.6 1.9-3.9v-.1h143.1v.1l1.9 3.9 12.3-1.6 1.5 4.4z" class="t-beige"/>
  <path d="M463.7 539.7H284.9v-.1l2.2-6.7v-.1h174.4v.1l2.2 6.8z" class="t-chocolate-variant"/>
  <path d="M477.5 546.5H271.1v-.1l1.2-6.1h12.4l.2-.6v-.1h178.8v.1l.2.6h12.4l1.2 6.2z" class="t-beige"/>
  <path d="M484.5 553.3H264.1l.6-.1 5.2-.7 1.1-6v-.1h206.4v.1l1.1 6 5.2.7.8.1z" class="t-chocolate-variant"/>
  <path d="M491.4 560l-234.1.1v-.1l.4-5.9 6.5-.8.6-.1h219.1l.6.1 6.5.8.4 5.9z" class="t-beige"/>
  <path d="M493.1 566.9H255.5l.4-.1 1-.3.4-6.4v-.1h234.1v.1l.4 6.4 1 .3.3.1z" class="t-chocolate-variant"/>
  <path d="M503.8 569.6l-.2 4v.1H245v-.1l-.2-4 10.7-2.7.4-.1h237l.4.1 10.5 2.7z" class="t-beige"/>
  <path d="M503.5 573.6l-.4 6.8v.1H245.5v-.1l-.4-6.7v-.1h258.4z" class="t-chocolate-variant"/>
  <path d="M514.6 586.6l-.1.5v.1H234.1v-.1l-.1-.5 11.6-4.6-.1-1.6v-.1h257.7v.1l-.2 1.6 11.6 4.6z" class="t-beige"/>
  <path d="M514.5 587.1l-1.3 6.8v.1H235.4v-.1l-1.3-6.7v-.1h280.4z" class="t-chocolate-variant"/>
  <path d="M515.9 600.8H232.7l.1-.1 3.5-1.9-.9-4.8v-.1h277.8v.1l-.9 4.8 3.5 1.9.1.1z" class="t-beige"/>
  <circle cx="372.6" cy="312.5" r="267.1" class="t-chocolate mane"/>
  <path d="M589.7 738c171.5-275.1 0-599.2 0-599.2V738z" class="t-chocolate"/>
  <path d="M556.1 738c171.5-275.1 0-599.2 0-599.2V738z" class="t-chocolate"/>
  <path d="M499.1 828.6c171.5-275.1 0-599.2 0-599.2v599.2z" class="t-chocolate"/>
  <path d="M465.5 828.6c171.5-275.1 0-599.2 0-599.2v599.2zM155.8 738c-171.5-275.1 0-599.2 0-599.2V738z" class="t-chocolate"/>
  <path d="M189.4 738c-171.5-275.1 0-599.2 0-599.2V738z" class="t-chocolate"/>
  <path d="M246.4 828.6c-171.5-275.1 0-599.2 0-599.2v599.2z" class="t-chocolate"/>
  <path d="M280 828.6c-171.6-275.1 0-599.2 0-599.2v599.2zm309.7 28.8c171.5-275.1 0-599.2 0-599.2v599.2z" class="t-chocolate"/>
  <path d="M556.1 857.4c171.5-275.1 0-599.2 0-599.2v599.2z" class="t-chocolate"/>
  <path d="M499.1 948c171.5-275.1 0-599.2 0-599.2V948z" class="t-chocolate mane"/>
  <path d="M465.5 948c171.5-275.1 0-599.2 0-599.2V948zm-309.7-90.6c-171.5-275.1 0-599.2 0-599.2v599.2z" class="t-chocolate mane"/>
  <path d="M189.4 857.4c-171.5-275.1 0-599.2 0-599.2v599.2z" class="t-chocolate"/>
  <path d="M246.4 948c-171.5-275.1 0-599.2 0-599.2V948z" class="t-chocolate mane"/>
  <path d="M280 948c-171.6-275 0-599.2 0-599.2V948z" class="t-chocolate mane"/>
  <path d="M239.5 265.7h268.9v306H239.5v-306zm200.9 371.9l-66.5-52.2v-.1.1l-66.5 52.2c0 19.2 29.8 34.8 66.5 34.9h.1c36.7-.1 66.4-15.7 66.4-34.9z" class="t-gold face"/>
  <path d="M239.9 571.7c0 36.8 29.8 66.6 66.6 66.5 36.8 0 66.5-29.8 66.5-66.5H239.9zm268 0c.5 36.8-29 66.9-65.7 67.4s-66.9-29-67.4-65.7v-1.6h133.1z" class="t-white mouth"/>
  <path d="M239.9 270.3c0-36.8 29.8-66.6 66.6-66.5 36.8 0 66.5 29.8 66.5 66.5H239.9zm268 0a66.5 66.5 0 0 0-67.4-65.7c-36.1.4-65.3 29.6-65.7 65.7h133.1z" class="t-gold forehead"/>
  <path d="M373.9 612.3l47.1-40.6h-94.2l47.1 40.6z" class="t-chocolate-variant"/>
  <path d="M373.9 612.3l47.1-40.6h-94.2l47.1 40.6z" class="t-dark-brown nose-tip"/>
  <path d="M373.9 432.5L421 571.7h-94.2l47.1-139.2z" class="t-chocolate nose-bridge"/>
  <path d="M533 93.7c-18.1 27.5-3.8 114.5-3.8 114.5s85.5-21.6 103.5-49.1c18.1-27.5 10.4-64.5-17.1-82.6S551.1 66.1 533 93.7z" class="t-gold ear-outer"/>
  <path d="M555.9 113.7c-9.8 14.9-2.1 62.1-2.1 62.1s46.3-11.7 56.2-26.6c10.1-14.7 6.5-34.8-8.2-44.9s-34.8-6.5-44.9 8.2c-.4.4-.6.8-1 1.2z" class="t-chocolate ear-inner"/>
  <path d="M210.7 93.7c18.1 27.5 3.9 114.5 3.9 114.5s-85.5-21.6-103.5-49.1c-18.3-27.4-10.9-64.4 16.4-82.7s64.4-10.9 82.7 16.4c.1.3.3.6.5.9z" class="t-gold ear-outer"/>
  <path d="M187.7 113.7c9.8 14.9 2.1 62.1 2.1 62.1s-46.3-11.7-56.1-26.6a32.34 32.34 0 0 1 10.8-44.4c14.5-8.9 33.4-5 43.2 8.9z" class="t-chocolate ear-inner"/>
  <path d="M255.5 359.8c.1-24.4 19.9-44.1 44.2-44 24.4.1 44.1 19.9 44 44.2l-88.2-.2z" class="t-dark-brown eye-outer-background"/>
  <path d="M298.3 315.9c-5.9.2-11.6 1.5-16.7 3.8l-3 1.5c-.8 2.5-1.3 5.3-1.3 8.1 0 14.5 11.8 26.3 26.3 26.3s26.3-11.8 26.3-26.3v-1.5c-.8-.8-1.7-1.5-2.5-2.2-4.4-3.6-9.6-6.3-15.3-8l-13.8-1.7z" class="t-chocolate"/>
  <path d="M298.3 315.9c-5.9.2-11.6 1.5-16.7 3.8-1.3 2.9-2 6.2-2 9.6 0 13.2 10.8 24 24 24a24.07 24.07 0 0 0 23.7-27.7c-4.4-3.6-9.6-6.3-15.3-8l-13.7-1.7z" class="t-gold eye-outer-ring-orange"/>
  <path d="M312 317.6c3.6 2.6 6 6.9 6 11.7 0 8-6.5 14.4-14.5 14.4a14.4 14.4 0 0 1-14.4-14.5 14.44 14.44 0 0 1 9.1-13.4l13.8 1.8z" class="t-dark-brown eye-inner-ring-black"/>
  <path d="M295.4 330.2c0 3.3-2.7 6.1-6 6.1s-6.1-2.7-6.1-6 2.7-6.1 6-6.1h.1c3.3 0 6 2.7 6 6z" class="t-white eye-white-circle"/>
  <path d="M492.7 359.7a44.12 44.12 0 0 0-88.2.7l88.2-.7z" class="t-dark-brown eye-outer-background"/>
  <path d="M434.9 318.6c-5.2 1.7-10 4.3-14.1 7.7-.9.7-1.7 1.4-2.5 2.2v.8c0 14.5 11.8 26.3 26.3 26.3s26.3-11.8 26.3-26.3c0-2.6-.4-5.1-1.1-7.4-.9-.5-1.9-1-2.9-1.5-4.8-2.2-10-3.5-15.5-3.9l-16.5 2.1z" class="t-chocolate"/>
  <path d="M434.9 318.6c-5.2 1.7-10 4.3-14.1 7.7-.1 1-.2 2-.2 3 0 13.2 10.8 24 24 24a24.07 24.07 0 0 0 22.3-32.9c-4.8-2.2-10-3.5-15.5-3.9l-16.5 2.1z" class="t-gold eye-inner-ring-orange"/>
  <path d="M434.9 318.6c-2.9 2.6-4.7 6.4-4.7 10.7a14.4 14.4 0 1 0 28.8-.1c0-1.8-.3-3.5-.9-5a14.88 14.88 0 0 0-6.7-7.8l-16.5 2.2z" class="t-dark-brown eye-inner-ring-black"/>
  <path d="M452.8 330.2c0 3.3 2.7 6.1 6 6.1s6.1-2.7 6.1-6-2.7-6.1-6-6.1h-.1c-3.3 0-6 2.7-6 6zm-48.3 30.1l88.2-.6-88.3 70.6.1-70zm-61.2 0l-88.2-.6 88.3 70.6-.1-70z" class="t-white inner-ring-white white-eye-triangles"/>
  <path d="M372.8 362.7h2.4v219.5h-2.4V362.7zm0 310.3h2.4v219.5h-2.4V673z" class="t-dark-brown middle-line"/>
  <path class="yellow-circles" fill="#f6e7a1" d="M256.2 504.1c0 20 16.2 36.2 36.2 36.2 20 0 36.2-16.2 36.2-36.2 0-20-16.2-36.2-36.2-36.2-20-.1-36.2 16.1-36.2 36.2zm161.8 0c0 20 16.2 36.2 36.2 36.2s36.2-16.2 36.2-36.2-16.2-36.2-36.2-36.2c-20-.1-36.2 16.1-36.2 36.2z"/>
  <path d="M137.6 578.5h140.2v2.4H137.6v-2.4zm45.7 109.6l99.2-99.2 1.7 1.7-99.2 99.2-1.7-1.7zm-36-58.3l133-44.4.7 2.2L148 632l-.7-2.2zm320.4-51.3h140.2v2.4H467.7v-2.4zm-6.4 12.1l1.7-1.7 99.2 99.2-1.7 1.7-99.2-99.2zm3.2-2.9l.7-2.2 133 44.4-.7 2.2-133-44.4zm11 644.8v-169.6c0-53.2-43.2-96.4-96.4-96.4s-96.4 43.2-96.4 96.4v169.6h192.8z" class="t-white whiskers chest-triangle"/>
  <path d="M282.8 1232.5v-51.8c0-16.3-13.2-29.4-29.4-29.4-16.3 0-29.4 13.2-29.4 29.4v51.8h58.8z" class="t-gold knuckle"/>
  <path d="M224.1 1232.5v-51.8c.3-16.3-12.6-29.7-28.9-30a29.41 29.41 0 0 0-30 28.9v52.9h58.9z" class="t-gold knuckle"/>
  <path d="M165.1 1232.5v-51.8c.3-16.3-12.6-29.7-28.9-30a29.41 29.41 0 0 0-30 28.9v52.9h58.9zm487.2 0v-51.8c.3-16.3-12.6-29.7-28.9-30a29.41 29.41 0 0 0-30 28.9v52.9h58.9z" class="t-gold knuckle"/>
  <path d="M593.7 1232.5v-51.8c0-16.3-13.2-29.4-29.4-29.4-16.3 0-29.4 13.2-29.4 29.4v51.8h58.8zm-59.1 0v-51.8c0-16.3-13.2-29.4-29.4-29.4-16.3 0-29.4 13.2-29.4 29.4v51.8h58.8z" class="t-gold knuckle"/>
  <path d="M539.2 365.6l1.5-1.5 87 87.1-1.5 1.5-87-87.1zm0-28.1l1.5-1.5 87 87.1-1.5 1.5-87-87.1zm0-28l1.5-1.5 87 87.1-1.5 1.5-87-87.1zm0-28.1l1.5-1.5 87 87.1-1.5 1.5-87-87.1zM130.3 451.3l87-87.1 1.5 1.5-87 87.1-1.5-1.5zm0-28.1l87-87.2 1.5 1.5-87 87.2-1.5-1.5zm0-28.1l87-87.1 1.5 1.5-87 87.1-1.5-1.5zm0-28.1l87-87.1 1.5 1.5-87 87.1-1.5-1.5zm24.5 864.8l-9.3-46.6-9.4 46.6h18.7zm32.7 0l-9.3-46.6-9.3 46.6h18.6zm32.6 0l-9.3-46.6-9.4 46.6h18.7zm335.7 0l-9.3-46.6-9.3 46.6h18.6zm32.6 0l-9.3-46.6-9.3 46.6h18.6zm32.7 0l-9.3-46.6-9.3 46.6h18.6zM430.3 583.2c0 1.8-1.4 3.2-3.2 3.2s-3.2-1.4-3.2-3.2c0-1.8 1.4-3.2 3.2-3.2 1.8 0 3.2 1.4 3.2 3.2zm9.8 9.8c0 1.8-1.4 3.2-3.2 3.2s-3.2-1.4-3.2-3.2 1.4-3.2 3.2-3.2 3.2 1.4 3.2 3.2zm-19.9.2c0 1.8-1.4 3.2-3.2 3.2-1.8 0-3.2-1.4-3.2-3.2 0-1.8 1.4-3.2 3.2-3.2 1.8 0 3.2 1.4 3.2 3.2zm-94.6-10c0 1.8-1.4 3.2-3.2 3.2-1.8 0-3.2-1.4-3.2-3.2 0-1.8 1.4-3.2 3.2-3.2 1.8 0 3.2 1.4 3.2 3.2zm9.8 9.8c0 1.8-1.4 3.2-3.2 3.2s-3.2-1.4-3.2-3.2 1.4-3.2 3.2-3.2 3.2 1.4 3.2 3.2zm-19.8.2c0 1.8-1.4 3.2-3.2 3.2s-3.2-1.4-3.2-3.2 1.4-3.2 3.2-3.2 3.2 1.4 3.2 3.2z" class="t-dark-brown diagonal-lines claws"/>
  <path d="M321.5 753.6l55.1 200.8 49.8-200.8-53.2 40.1-51.7-40.1z" class="t-white chest-triangle"/>
  <g class="tail-group">
  <path d="M857.5 774c-14.5 0-26.2 11.5-26.2 25.7s26.2 100.8 26.2 100.8V774z" class="t-chocolate tail-tip-half"/>
  <path d="M857.3 773.6c14.5 0 26.2 11.5 26.2 25.7s-26.2 100.8-26.2 100.8V773.6z" class="t-chocolate tail-tip-half"/>
  </g>
</svg>