<svg xmlns="http://www.w3.org/2000/svg" xmlns:xlink="http://www.w3.org/1999/xlink" viewBox="0 0 554.83 744.75"><defs><style>.cls-1,.cls-2{fill:none;}.cls-1{clip-rule:evenodd;}.cls-3{clip-path:url(#clip-path);}.cls-4{clip-path:url(#clip-path-2);}.cls-5{clip-path:url(#clip-path-3);}.cls-6{clip-path:url(#clip-path-4);}.cls-7{clip-path:url(#clip-path-5);}.cls-8{clip-path:url(#clip-path-6);}.cls-9{clip-path:url(#clip-path-7);}.cls-10{clip-path:url(#clip-path-8);}.cls-11{clip-path:url(#clip-path-9);}.cls-12{clip-path:url(#clip-path-10);}.cls-13{clip-path:url(#clip-path-11);}.cls-14{clip-path:url(#clip-path-12);}.cls-15{clip-path:url(#clip-path-13);}.cls-16{clip-path:url(#clip-path-14);}.cls-17{clip-path:url(#clip-path-15);}.cls-18{clip-path:url(#clip-path-16);}.cls-19{clip-path:url(#clip-path-17);}.cls-20{clip-path:url(#clip-path-18);}.cls-21{clip-path:url(#clip-path-19);}.cls-22{clip-path:url(#clip-path-20);}.cls-23{clip-path:url(#clip-path-21);}.cls-24{clip-path:url(#clip-path-22);}.cls-25{clip-path:url(#clip-path-23);}.cls-26{clip-path:url(#clip-path-24);}.cls-27{clip-path:url(#clip-path-25);}.cls-28{clip-path:url(#clip-path-26);}.cls-29{clip-path:url(#clip-path-27);}.cls-30{clip-path:url(#clip-path-28);}.cls-31{clip-path:url(#clip-path-29);}.cls-32{clip-path:url(#clip-path-30);}.cls-33{clip-path:url(#clip-path-31);}.cls-34{clip-path:url(#clip-path-32);}.cls-35{clip-path:url(#clip-path-33);}.cls-36{fill:#8fd1bb;}</style><clipPath id="clip-path"><path class="cls-1" d="M874.64-942.55C848.64-909,804-843.5,773.1-795S698.2-664.88,662-622.48,545.8-479.37,519.58-451.16c0,0-17.43,23.91,26.26-27.37,26.1-30.64,127.8-154.88,136.24-165.84,22.56-29.33,64.36-104.09,97.39-157.74S865.66-929,865.66-929Z"/></clipPath><clipPath id="clip-path-2"><rect class="cls-2" x="386.56" y="-717.03" width="614.9" height="45.55" transform="translate(898.28 265.91) rotate(-57)"/></clipPath><clipPath id="clip-path-3"><path class="cls-1" d="M689.53-566.18c-46.67-8.56-53.43,88.26-129.59,65.52,10.29-11,15.94-20.68,21-26.51,47.31,4.13,41.14-47.06,108-56.63.75,6.7-.19,10.92.56,17.62"/></clipPath><clipPath id="clip-path-4"><path class="cls-1" d="M779.06-751.78c-18.7-5-18.86,36.87-49.6,25,3.79-4.49,5.77-8.54,7.64-10.94,18.84,3.06,15.06-19.32,41.28-21.68.47,2.93.21,4.74.68,7.66"/></clipPath><clipPath id="clip-path-5"><path class="cls-1" d="M706.93-600.32c-37-6.93-42,69.37-102.37,51.14,8.11-8.62,12.55-16.24,16.57-20.82,37.48,3.45,32.38-36.93,85.28-44.2.62,5.28-.1,8.61.52,13.88"/></clipPath><clipPath id="clip-path-6"><path class="cls-1" d="M837.41-815.93c-27-4.76-31.32,51.68-75.27,38.79,6-6.45,9.32-12.12,12.3-15.54,27.34,2.18,24-27.61,62.73-33.51.4,3.9-.16,6.37.24,10.26"/></clipPath><clipPath id="clip-path-7"><path class="cls-1" d="M757.84-678.71c-33-13.62-24.25,66.4-79.35,36.84,5.51-7.77,8-15.09,10.7-19.26,32.84,10,21.56-33.65,65.84-32.39,1.43,5.7,1.38,9.11,2.81,14.81"/></clipPath><clipPath id="clip-path-8"><path class="cls-1" d="M717.29-754c7.51,24.73-38,45.08-21.57,84,4.46-7.66,8.65-12.48,11-16.35-5.46-25.85,19.32-31.13,18.93-70.3-3.23.72-5.17,2-8.41,2.7"/></clipPath><clipPath id="clip-path-9"><path class="cls-1" d="M650-672.46c7.51,24.74-38,45.09-21.57,84,4.46-7.66,8.65-12.49,11-16.35-5.46-25.85,19.32-31.14,18.93-70.31-3.23.73-5.17,2-8.41,2.7"/></clipPath><clipPath id="clip-path-10"><path class="cls-1" d="M806.79-910.16c12.73,20.7-30.5,42.79-5.69,74.86,3.11-7.07,6.5-11.67,8.22-15.25-10.82-21.86,13.88-28.87,5.67-62.77-3.21.94-5,2.22-8.2,3.16"/></clipPath><clipPath id="clip-path-11"><rect class="cls-2" x="507.42" y="-570.67" width="150.95" height="39.86" transform="translate(727.32 238.07) rotate(-57)"/></clipPath><clipPath id="clip-path-12"><path class="cls-1" d="M899.08-820.35c-22.54,29.1-61.24,85.87-88,128s-64.93,112.78-96.35,149.53S614-418.79,591.26-394.34c0,0-15.12,20.73,22.76-23.73,22.62-26.56,110.79-134.27,118.11-143.78,19.56-25.42,55.8-90.24,84.43-136.74s74.73-110.06,74.73-110.06Z"/></clipPath><clipPath id="clip-path-13"><rect class="cls-2" x="475.93" y="-624.83" width="533.1" height="39.49" transform="translate(845.57 347.16) rotate(-57)"/></clipPath><clipPath id="clip-path-14"><path class="cls-1" d="M738.59-494.06c-40.46-7.42-46.31,76.52-112.35,56.81,8.93-9.53,13.82-17.93,18.25-23,41,3.58,35.66-40.79,93.62-49.09.65,5.8-.16,9.47.48,15.27"/></clipPath><clipPath id="clip-path-15"><path class="cls-1" d="M816.21-655c-16.21-4.31-16.35,32-43,21.64,3.29-3.9,5-7.41,6.63-9.49,16.32,2.66,13-16.74,35.78-18.79.41,2.53.18,4.1.59,6.64"/></clipPath><clipPath id="clip-path-16"><path class="cls-1" d="M753.68-523.65c-32.08-6-36.38,60.14-88.75,44.33,7-7.47,10.87-14.08,14.36-18.05,32.49,3,28.08-32,73.94-38.32.54,4.58-.09,7.46.45,12"/></clipPath><clipPath id="clip-path-17"><path class="cls-1" d="M866.8-710.58c-23.37-4.13-27.16,44.81-65.26,33.63,5.21-5.59,8.08-10.51,10.66-13.48,23.71,1.9,20.82-23.93,54.39-29,.35,3.38-.14,5.52.21,8.89"/></clipPath><clipPath id="clip-path-18"><path class="cls-1" d="M797.82-591.62c-28.63-11.81-21,57.57-68.8,31.94,4.78-6.73,7-13.08,9.28-16.69,28.47,8.67,18.69-29.17,57.08-28.08,1.24,4.94,1.19,7.89,2.44,12.83"/></clipPath><clipPath id="clip-path-19"><path class="cls-1" d="M762.66-656.87c6.51,21.44-32.94,39.08-18.7,72.78,3.87-6.64,7.5-10.82,9.58-14.17-4.73-22.41,16.75-27,16.41-61-2.8.63-4.48,1.71-7.29,2.34"/></clipPath><clipPath id="clip-path-20"><path class="cls-1" d="M704.36-586.19c6.51,21.44-32.94,39.08-18.7,72.78,3.87-6.64,7.5-10.82,9.57-14.17-4.73-22.41,16.75-27,16.42-60.95-2.81.63-4.49,1.71-7.29,2.34"/></clipPath><clipPath id="clip-path-21"><path class="cls-1" d="M840.25-792.27c11,17.94-26.44,37.1-4.93,64.9,2.7-6.13,5.64-10.11,7.13-13.22-9.38-18.95,12-25,4.91-54.42-2.78.82-4.32,1.92-7.11,2.74"/></clipPath><clipPath id="clip-path-22"><rect class="cls-2" x="580.71" y="-497.95" width="130.87" height="34.56" transform="translate(697.36 323.02) rotate(-57)"/></clipPath><clipPath id="clip-path-23"><path class="cls-1" d="M836.72-1098.61C803.15-1055.27,745.5-970.72,705.6-908s-96.71,168-143.51,222.72-150,184.8-183.85,221.22c0,0-22.51,30.88,33.9-35.34,33.7-39.56,165-200,175.92-214.15C617.2-751.45,671.17-848,713.82-917.26s111.31-163.92,111.31-163.92Z"/></clipPath><clipPath id="clip-path-24"><rect class="cls-2" x="206.47" y="-807.4" width="794.01" height="58.81" transform="translate(927.28 151.85) rotate(-57)"/></clipPath><clipPath id="clip-path-25"><path class="cls-1" d="M597.69-612.62c-60.27-11-69,114-167.34,84.61,13.3-14.19,20.59-26.71,27.18-34.24C518.62-556.91,510.64-623,597-635.36c1,8.64-.24,14.1.72,22.74"/></clipPath><clipPath id="clip-path-26"><path class="cls-1" d="M713.29-852.27c-24.14-6.42-24.34,47.61-64,32.23,4.89-5.8,7.45-11,9.87-14.13,24.32,3.95,19.44-24.94,53.3-28,.6,3.77.27,6.11.87,9.89"/></clipPath><clipPath id="clip-path-27"><path class="cls-1" d="M620.16-656.69c-47.78-9-54.18,89.57-132.18,66,10.47-11.13,16.19-21,21.38-26.88,48.4,4.46,41.82-47.68,110.13-57.07.8,6.81-.13,11.11.67,17.93"/></clipPath><clipPath id="clip-path-28"><path class="cls-1" d="M788.64-935.11c-34.81-6.15-40.44,66.73-97.19,50.09,7.75-8.33,12-15.65,15.88-20.08,35.31,2.83,31-35.65,81-43.25.52,5-.21,8.21.31,13.24"/></clipPath><clipPath id="clip-path-29"><path class="cls-1" d="M685.9-757.93c-42.63-17.58-31.32,85.75-102.46,47.58,7.11-10,10.35-19.49,13.81-24.87,42.4,12.92,27.84-43.45,85-41.83,1.85,7.37,1.78,11.76,3.63,19.12"/></clipPath><clipPath id="clip-path-30"><path class="cls-1" d="M633.54-855.12c9.7,31.94-49.06,58.21-27.85,108.41,5.76-9.89,11.17-16.13,14.26-21.11-7-33.39,24.95-40.21,24.45-90.78-4.18.93-6.68,2.54-10.86,3.48"/></clipPath><clipPath id="clip-path-31"><path class="cls-1" d="M546.7-749.85c9.7,31.94-49.06,58.22-27.85,108.41,5.76-9.89,11.17-16.12,14.26-21.11-7-33.38,24.95-40.21,24.45-90.78-4.18.93-6.68,2.55-10.86,3.48"/></clipPath><clipPath id="clip-path-32"><path class="cls-1" d="M749.11-1056.79c16.44,26.73-39.39,55.26-7.35,96.67,4-9.14,8.39-15.07,10.61-19.69-14-28.23,17.92-37.29,7.33-81.06-4.16,1.22-6.44,2.86-10.59,4.08"/></clipPath><clipPath id="clip-path-33"><rect class="cls-2" x="362.53" y="-618.42" width="194.92" height="51.47" transform="translate(706.53 115.9) rotate(-57)"/></clipPath></defs><title>seaweed-group</title><g id="Layer_2" data-name="Layer 2"><g id="seaweed-large"><path class="cls-36" d="M461,0c-32.66,43.78-88.5,129.08-127.07,192.27S240.83,361.46,195.17,416.83,49.07,603.62,16,640.5c0,0-21.85,31.17,33.17-35.8C82,564.69,210,402.52,220.56,388.21,248.9,350,300.79,252.75,342,182.94S449.77,17.58,449.77,17.58Z"/><path class="cls-36" d="M464.65,3.26c-7.94,10.33-26.84,15.63-36.82,29.85-8.28,11.8-7,31.54-16,44.94-8.39,12.48-27.11,18.72-35.58,31.76s-6.56,32.65-14.59,45.42C353.09,168.82,334.53,175.65,327,188c-8.22,13.57-6.56,35.29-15.9,51.92-8.29,14.77-27.56,24.39-36.44,40.16-8.62,15.31-6.9,36.89-15.83,51.92-9.29,15.65-29,24.33-38.32,38.33-10.65,16-11.57,37.8-21.89,49.73-10.14,11.73-32.18,19.1-46.26,36.14-11.49,13.91-14.45,36.76-27,52.16-12.14,14.83-33.91,22.19-45.86,36.73-12.94,15.75-16.05,38.64-27.3,52C36.49,615.85,13.81,623.46,5,632.68c-4.17,5.1-8.73,12.35-.11,3.9,2-1.93,13.66,3.47,17.83-1.12,2.47-2.71-3.7-14.09-.28-18,2.59-2.93,14.64,1.81,17.85-1.88,2.65-3-3.69-14.34-.58-18,7.7-8.94,29.73-16.23,44.93-34.49,10.83-13,13.53-35.37,26-50.39,11.7-14.16,33.1-21,44.61-35,12.62-15.34,15.23-37.75,25.68-50.53,18.26-22.34,41.24-31.33,44.4-35.47,7.46-9.78,6.29-30.42,16.1-46.71,7.53-12.52,26.12-20.38,34.47-35.15,7.58-13.42,4.77-33.43,12.64-47.63,7.73-13.95,26.16-22.09,33.82-35.8,8.06-14.43,5.4-34.49,13-47.54,6.29-10.82,23.65-16,30.86-27.51,6.92-11.09,3.82-28.87,11-39.85,7.41-11.39,24.95-15.8,31.94-26.23,8.08-12.05,5.57-30,12.1-39.52,13.5-19.63,21.33-9.26,32.59-25.47,1.19-1.72-9-8.52-7.89-10.27s11.39,4.8,12.51,3-9.15-8.32-8-10.08,8,6.18,9.89,5.32C463.71,6.86,466,1.66,464.65,3.26Z"/><path class="cls-36" d="M232.73,488.58c-60.28-10-66.41,114.57-165,87.05,13-14.34,20-26.92,26.38-34.53,61,4.26,51.68-61.36,137.44-75.14C232.68,474.54,231.59,480,232.73,488.58Z"/><path class="cls-36" d="M342.79,247.62c-24.91-6.3-23.45,48.4-64.55,33.14,4.83-5.91,7.29-11.24,9.67-14.38,25,3.81,19.13-25.41,53.68-28.76C342.32,241.44,342.05,243.81,342.79,247.62Z"/><path class="cls-36" d="M252.66,444.51c-47.85-7.9-52.72,91-131,69.1,10.28-11.38,15.85-21.37,20.94-27.41,48.4,3.39,41-48.7,109.09-59.64C252.62,433.37,251.75,437.7,252.66,444.51Z"/><path class="cls-36" d="M416,163.3c-34.78-5.74-38.32,66.12-95.22,50.24,7.48-8.28,11.52-15.54,15.23-19.93,35.18,2.46,29.82-35.41,79.31-43.36C416,155.21,415.39,158.35,416,163.3Z"/><path class="cls-36" d="M317.41,341.56c-43.06-16.82-29.78,86.55-101.8,49.64,6.94-10.19,10-19.73,13.37-25.19,42.75,12.15,27.09-44.09,84.43-43.55C315.4,329.81,315.42,334.21,317.41,341.56Z"/><path class="cls-36" d="M263.88,246.6c10.72,32.2-48.42,59.48-25.5,110,5.61-10.07,11-16.44,14-21.52-8-33.68,24.34-41,22.5-92.12C270.62,244,268.11,245.61,263.88,246.6Z"/><path class="cls-36" d="M179.06,353.71c10.71,32.19-48.43,59.47-25.51,110,5.61-10.08,10.95-16.44,14-21.53-8.05-33.68,24.34-41,22.5-92.12C185.79,351.05,183.28,352.71,179.06,353.71Z"/><path class="cls-36" d="M375.14,42.87c16.59,26.18-38.28,56-6.09,96.4,3.86-9.19,8.12-15.21,10.26-19.87-14.16-27.74,17.27-37.56,6.26-80.86C381.47,39.86,379.24,41.55,375.14,42.87Z"/><path class="cls-36" d="M118.33,426.93c17.41,56.8-98,86.13-59,176.93,11.65-15.3,22.44-24.48,28.68-32.15-12.18-58.55,50.32-61.81,51.64-147.86C131.43,424.35,126.49,426.43,118.33,426.93Z"/></g><g id="seaweed-medium"><path class="cls-36" d="M506.84,163c-27.41,36.75-74.29,108.36-106.66,161.4s-78.14,142-116.47,188.5S161.07,669.71,133.29,700.67c0,0-18.35,26.16,27.84-30C188.72,637,296.12,500.9,305,488.89c23.79-32.11,67.35-113.71,101.9-172.31s90.5-138.81,90.5-138.81Z"/><path class="cls-36" d="M510.67,166.38c-6.67,8.67-24.09,11.93-32.46,23.87-6.95,9.9-4.28,27.58-11.83,38.82-7,10.48-24.39,14.64-31.5,25.59s-3.85,28.46-10.6,39.18c-7.19,11.41-24.43,16.11-30.73,26.52-6.89,11.38-3.81,30.6-11.65,44.56-7,12.4-24.84,19.52-32.3,32.76-7.23,12.85-4.1,31.94-11.58,44.55-7.8,13.14-26,19.38-33.83,31.14-8.94,13.41-8.15,32.91-16.82,42.93-8.52,9.85-28.51,14.76-40.33,29.07-9.64,11.67-10.62,32.1-21.2,45-10.18,12.44-30,17.38-40,29.59-10.87,13.22-12,33.69-21.41,44.93-13.17,15.68-33.72,20.82-41.12,28.56-3.49,4.29-7.25,10.28,0,3.2,1.66-1.63,12.87,4.26,16.37.42,2.08-2.28-4.56-13.14-1.69-16.39,2.18-2.46,13.77,2.81,16.46-.29,2.22-2.56-4.58-13.32-2-16.35,6.46-7.5,26.45-12.35,39.21-27.68,9.09-10.92,9.85-30.94,20.27-43.55,9.82-11.89,29.29-16.35,39-28.11,10.59-12.88,11.27-32.93,20-43.66,15.34-18.75,36.16-25.09,38.81-28.56,6.26-8.21,3.67-26.63,11.9-40.31,6.32-10.51,23.62-16.11,30.62-28.52,6.37-11.26,2.3-29,8.9-40.93,6.49-11.71,23.68-17.6,30.11-29.1,6.76-12.11,2.83-29.92,9.19-40.88,5.28-9.08,21.53-12.37,27.59-22.08,5.8-9.31,1.55-25.29,7.55-34.5,6.22-9.57,22.58-12.19,28.45-20.94,6.78-10.12,3.05-26.29,8.53-34.27,11.33-16.48,19.52-6.67,29-20.28,1-1.43-9.2-8.23-8.26-9.7s11.22,5.08,12.16,3.61-9.33-8-8.39-9.51,7.38,6.66,9,6.08C509.5,170,511.79,165,510.67,166.38Z"/><path class="cls-36" d="M315.23,573.13c-50.59-8.35-55.74,96.18-138.51,73.08,10.88-12,16.76-22.6,22.14-29,51.19,3.57,43.39-51.51,115.38-63.08C315.2,561.36,314.28,565.93,315.23,573.13Z"/><path class="cls-36" d="M407.62,370.88c-20.9-5.3-19.68,40.62-54.18,27.81,4.05-5,6.12-9.43,8.11-12.07,21,3.2,16.06-21.33,45.06-24.14C407.23,365.68,407,367.67,407.62,370.88Z"/><path class="cls-36" d="M332,536.15c-40.16-6.64-44.25,76.34-109.94,58,8.63-9.56,13.3-17.94,17.58-23,40.62,2.84,34.43-40.88,91.57-50.06C331.93,526.8,331.2,530.43,332,536.15Z"/><path class="cls-36" d="M469.11,300.09c-29.19-4.82-32.17,55.51-79.93,42.18,6.28-6.95,9.67-13,12.78-16.73,29.54,2.06,25-29.73,66.58-36.4C469.09,293.3,468.56,295.94,469.11,300.09Z"/><path class="cls-36" d="M386.32,449.72c-36.15-14.11-25,72.66-85.46,41.68,5.83-8.55,8.41-16.56,11.23-21.15,35.88,10.2,22.74-37,70.87-36.55C384.63,439.86,384.64,443.56,386.32,449.72Z"/><path class="cls-36" d="M341.39,370c9,27-40.65,49.92-21.41,92.33,4.71-8.46,9.19-13.81,11.72-18.07C324.94,416,352.14,409.89,350.59,367,347,367.79,344.94,369.18,341.39,370Z"/><path class="cls-36" d="M270.18,459.92c9,27-40.64,49.93-21.41,92.33,4.71-8.45,9.2-13.8,11.73-18.07-6.76-28.27,20.43-34.39,18.89-77.32C275.84,457.69,273.73,459.09,270.18,459.92Z"/><path class="cls-36" d="M434.78,199c13.92,22-32.14,47-5.11,80.92,3.24-7.72,6.81-12.76,8.61-16.68-11.89-23.29,14.5-31.53,5.25-67.88C440.1,196.47,438.22,197.89,434.78,199Z"/><path class="cls-36" d="M219.21,521.39c14.61,47.68-82.27,72.3-49.57,148.52,9.78-12.84,18.84-20.55,24.08-27C183.49,593.77,236,591,237.06,518.8,230.21,519.22,226.06,521,219.21,521.39Z"/></g><g id="seaweed-small"><path class="cls-36" d="M550.65,310.79c-21.88,29.33-59.29,86.48-85.13,128.81s-62.37,113.35-93,150.45S274.68,715.19,252.5,739.89c0,0-14.64,20.89,22.23-24,22-26.8,107.74-135.46,114.84-145,19-25.63,53.75-90.75,81.33-137.52s72.23-110.79,72.23-110.79Z"/><path class="cls-36" d="M554.64,314.26c-5.32,6.92-21.17,8-27.85,17.56-5.55,7.9-1.39,23.4-7.42,32.38-5.61,8.36-21.51,10.32-27.19,19.06s-1,24-6.39,32.59c-5.73,9.11-21.59,11.57-26.61,19.88-5.51,9.09-.92,25.66-7.18,36.81-5.55,9.89-22,14.36-27.92,24.93-5.77,10.26-1.14,26.72-7.12,36.79-6.22,10.49-22.82,14.16-29.08,23.54-7.13,10.7-4.55,27.76-11.47,35.75s-24.63,10.2-34.06,21.62c-7.7,9.31-6.58,27.18-15,37.49C319.2,662.6,301.5,665,293.5,674.72c-8.67,10.56-7.66,28.46-15.2,37.44-10.51,12.51-28.8,15-34.71,21.22-2.79,3.42-5.69,8.11.08,2.45,1.33-1.29,12.05,5.12,14.84,2,1.65-1.81-5.47-12.12-3.18-14.71,1.73-2,12.83,3.86,15,1.39,1.78-2-5.51-12.25-3.42-14.67,5.15-6,23-8.26,33.16-20.49,7.26-8.72,6-26.27,14.29-36.33,7.84-9.49,25.28-11.49,33-20.87,8.45-10.28,7.1-27.85,14.1-36.42,12.24-15,30.79-18.49,32.9-21.26,5-6.56.9-22.64,7.46-33.56,5-8.38,21-11.62,26.57-21.51,5.08-9-.32-24.37,5-33.88,5.18-9.34,21-12.84,26.17-22,5.4-9.66.12-25.09,5.2-33.84,4.22-7.25,19.29-8.61,24.13-16.36,4.63-7.42-.84-21.5,3.95-28.85,5-7.64,20.08-8.37,24.76-15.36,5.42-8.08.4-22.37,4.78-28.74,9-13.15,17.6-3.91,25.14-14.77.8-1.15-9.39-7.94-8.64-9.12s11,5.39,11.78,4.21-9.52-7.74-8.77-8.91,6.58,7.17,7.94,6.87C553.07,317.94,555.54,313.19,554.64,314.26Z"/><path class="cls-36" d="M397.72,638.11c-40.38-6.67-44.49,76.76-110.55,58.32,8.68-9.61,13.38-18,17.67-23.13,40.86,2.85,34.63-41.11,92.09-50.34C397.69,628.71,397,632.36,397.72,638.11Z"/><path class="cls-36" d="M471.46,476.68c-16.69-4.22-15.71,32.43-43.24,22.2,3.23-4,4.88-7.53,6.47-9.63,16.75,2.55,12.82-17,36-19.27C471.15,472.54,471,474.13,471.46,476.68Z"/><path class="cls-36" d="M411.07,608.59c-32.05-5.3-35.31,60.93-87.75,46.29,6.89-7.63,10.62-14.31,14-18.36,32.43,2.27,27.48-32.63,73.09-39.95C411.05,601.13,410.47,604,411.07,608.59Z"/><path class="cls-36" d="M520.53,420.19c-23.3-3.85-25.67,44.3-63.79,33.66,5-5.55,7.72-10.41,10.2-13.35,23.57,1.65,20-23.72,53.14-29.05C520.52,414.77,520.09,416.87,520.53,420.19Z"/><path class="cls-36" d="M454.45,539.61c-28.85-11.26-19.94,58-68.2,33.26,4.65-6.82,6.71-13.21,9-16.87,28.64,8.13,18.15-29.54,56.56-29.18C453.11,531.74,453.12,534.69,454.45,539.61Z"/><path class="cls-36" d="M418.59,476c7.18,21.57-32.44,39.84-17.08,73.69,3.75-6.75,7.33-11,9.36-14.42-5.4-22.57,16.31-27.45,15.07-61.72C423.11,474.22,421.43,475.33,418.59,476Z"/><path class="cls-36" d="M361.76,547.75c7.18,21.57-32.44,39.85-17.08,73.69,3.75-6.75,7.33-11,9.36-14.42-5.4-22.56,16.3-27.44,15.07-61.71C366.28,546,364.6,547.09,361.76,547.75Z"/><path class="cls-36" d="M493.13,339.51c11.12,17.54-25.65,37.51-4.08,64.58,2.59-6.16,5.44-10.19,6.88-13.31-9.49-18.59,11.57-25.17,4.19-54.18C497.37,337.49,495.88,338.62,493.13,339.51Z"/><path class="cls-36" d="M321.08,596.81c11.66,38.05-65.66,57.71-39.56,118.54,7.8-10.25,15-16.4,19.22-21.54-8.17-39.23,33.71-41.41,34.59-99.07C329.86,595.08,326.55,596.48,321.08,596.81Z"/></g></g></svg>