<svg id="Layer_2" data-name="Layer 2" xmlns="http://www.w3.org/2000/svg" viewBox="0 0 602.24 704.05"><defs><style>.cls-1{fill:#231f20;}.cls-2{fill:#333;}.cls-3{fill:#fff;}.cls-4{fill:#afdfe4;}.cls-5{fill:none;}</style></defs><title>zebra</title><path class="cls-1" d="M602,316.67c-1.54,29.15,0,265.23,0,265.23H562.68V365Z"/><polygon class="cls-2" points="212.23 426.05 202.23 524.05 163.23 524.05 141.23 394.05 212.23 426.05"/><polygon class="cls-2" points="467.72 426.05 457.72 524.05 418.72 524.05 396.72 394.05 467.72 426.05"/><circle class="cls-2" cx="437.22" cy="525.05" r="26"/><polyline class="cls-2" points="456.72 538.05 467.72 679.05 408.72 679.05 416.72 530.05"/><path class="cls-2" d="M394.72,679.55a40.5,40.5,0,0,1,81,0"/><circle class="cls-2" cx="181.73" cy="525.05" r="26"/><polyline class="cls-2" points="201.23 538.05 212.23 679.05 153.23 679.05 161.23 530.05"/><path class="cls-2" d="M139.23,679.55a40.5,40.5,0,0,1,81,0"/><polygon points="133.23 704.05 213.73 704.05 213.73 679.05 144.73 679.05 133.23 704.05"/><polygon points="388.72 704.05 469.22 704.05 469.22 679.05 400.22 679.05 388.72 704.05"/><path class="cls-3" d="M550.48,541.89a26,26,0,0,0,1.79-31.33l7.31-90h1.16l-1-2.33.14-1.82a120,120,0,0,0-77.73-211.54c-3.76,0-7.48.18-11.15.52l-.55-1.33H357l-28.7-28.7H251.76L142.52,88.38l-9.09-38L92.31,228.64l52.95,191.88h36.53a142.45,142.45,0,0,0,40.88,38.17l8.62,50.95a26,26,0,0,0-.11,30.66l-5.76,107.25a40.42,40.42,0,0,0-15.69,32h81a40.33,40.33,0,0,0-10-26.68l-8.66-111a26,26,0,0,0,2-30.95l3.32-32.54a141.79,141.79,0,0,0,134-56.55,120,120,0,0,0,87.22,22l11.14,65.82a26,26,0,0,0-.11,30.66l-5.76,107.25a40.42,40.42,0,0,0-15.69,32h81a40.38,40.38,0,0,0-10-26.68Z"/><path d="M152.17,22.32a17.21,17.21,0,0,1-24.34,24.34"/><path class="cls-3" d="M158.1,0a25.87,25.87,0,0,1-36.59,36.59"/><path d="M50.66,261.38A33.08,33.08,0,1,0,83.74,228.3,33.08,33.08,0,0,0,50.66,261.38Z"/><path d="M13.51,22.32A17.21,17.21,0,0,0,37.84,46.66"/><polygon class="cls-3" points="150.71 111.19 120.76 275.66 47.36 275.66 17.41 111.19 38.75 28.75 129.37 28.75 150.71 111.19"/><path class="cls-4" d="M32.5,112a7.12,7.12,0,1,0,7.12-7.12A7.12,7.12,0,0,0,32.5,112Z"/><path d="M34.05,112a5.57,5.57,0,1,0,5.57-5.56A5.57,5.57,0,0,0,34.05,112Z"/><path class="cls-3" d="M39.62,110.68A1.36,1.36,0,1,0,41,109.32,1.36,1.36,0,0,0,39.62,110.68Z"/><path class="cls-4" d="M120.75,112a7.12,7.12,0,1,0,7.12-7.12A7.12,7.12,0,0,0,120.75,112Z"/><path d="M122.31,112a5.56,5.56,0,1,0,5.56-5.56A5.56,5.56,0,0,0,122.31,112Z"/><path class="cls-3" d="M127.87,110.68a1.36,1.36,0,1,0,1.36-1.36A1.36,1.36,0,0,0,127.87,110.68Z"/><polygon class="cls-1" points="90.56 28.42 83.89 14.83 77.21 28.42 83.89 42.01 90.56 28.42"/><polygon class="cls-1" points="103.56 28.42 96.89 14.83 90.22 28.42 96.89 42.01 103.56 28.42"/><polygon class="cls-1" points="77.27 28.42 70.6 14.83 63.93 28.42 70.6 42.01 77.27 28.42"/><polygon class="cls-1" points="167.18 106.86 170.05 91.99 156.54 98.81 153.66 113.68 167.18 106.86"/><polygon class="cls-1" points="177.55 114.7 180.43 99.84 166.91 106.65 164.04 121.52 177.55 114.7"/><polygon class="cls-1" points="156.58 98.84 159.45 83.98 145.94 90.8 143.06 105.66 156.58 98.84"/><polygon class="cls-1" points="198.23 131.19 201.1 116.33 187.59 123.15 184.72 138.01 198.23 131.19"/><polygon class="cls-1" points="208.61 139.04 211.48 124.17 197.96 130.99 195.09 145.85 208.61 139.04"/><polygon class="cls-1" points="187.63 123.18 190.5 108.32 176.99 115.14 174.11 130 187.63 123.18"/><polygon class="cls-1" points="229.11 155.31 231.98 140.45 218.47 147.27 215.59 162.13 229.11 155.31"/><polygon class="cls-1" points="239.49 163.16 242.36 148.29 228.84 155.11 225.97 169.97 239.49 163.16"/><polygon class="cls-1" points="218.51 147.3 221.38 132.44 207.87 139.26 204.99 154.12 218.51 147.3"/><polygon class="cls-1" points="50.66 137.05 39.62 209.05 52.41 200.38 50.66 137.05"/><polygon class="cls-1" points="138.67 64.7 143.27 82.46 105.41 48.38 138.67 64.69 138.67 64.7"/><polygon class="cls-1" points="133.71 45.53 105.41 42.01 130.16 37.01 131.77 38.03 131.77 38.04 133.71 45.53"/><polygon class="cls-1" points="117.34 137.05 128.39 209.05 115.59 200.38 117.34 137.05"/><polygon class="cls-1" points="150.71 111.19 146.03 136.86 137.25 112.04 145.86 92.46 150.71 111.19"/><polygon class="cls-1" points="29.66 112.04 21.67 134.61 17.41 111.19 21.81 94.18 29.66 112.04"/><path class="cls-2" d="M133.77,204.23l-13,71.43H47.36L34.06,202.6a81.74,81.74,0,0,1,7.27-4.75,82.23,82.23,0,0,1,36.72-11c1.58-.09,3.17-.14,4.78-.14,2.34,0,4.67.1,7,.29a82.16,82.16,0,0,1,26,6.53,80.71,80.71,0,0,1,11.12,5.87A76.27,76.27,0,0,1,133.77,204.23Z"/><polygon class="cls-1" points="37.84 134.55 30.38 182.37 24.57 150.5 37.84 134.55"/><polygon class="cls-1" points="143.95 148.34 139.3 173.87 133.31 135.55 143.95 148.34"/><polygon class="cls-1" points="56.3 104.92 84.06 209.48 110.75 104.92 84.06 155.34 56.3 104.92"/><polygon class="cls-1" points="110.75 96.45 84.06 46.02 56.3 96.45 74.27 28.75 93.47 28.75 110.75 96.45"/><polygon class="cls-1" points="62.59 48.38 24.88 82.33 29.46 64.63 62.59 48.38"/><polygon class="cls-1" points="62.59 42.01 34.4 45.52 36.36 37.95 37.84 37.01 62.59 42.01"/><polygon class="cls-1" points="83.74 61.05 77.21 104.92 84.06 137.72 90.56 104.92 83.74 61.05"/><polygon class="cls-5" points="150.71 111.19 146.03 136.86 146.03 136.87 143.95 148.34 139.3 173.87 139.3 173.89 133.77 204.23 120.76 275.66 47.36 275.66 34.06 202.6 30.38 182.39 30.38 182.37 24.57 150.5 21.67 134.61 17.41 111.19 21.81 94.18 24.88 82.33 29.46 64.63 34.4 45.52 36.36 37.95 38.74 28.75 129.37 28.75 131.77 38.03 131.77 38.04 133.71 45.53 138.67 64.69 138.67 64.7 143.27 82.46 145.86 92.46 150.71 111.19"/><path class="cls-3" d="M7.58,0A25.87,25.87,0,0,0,44.16,36.59"/><path d="M52.41,259.43a5.09,5.09,0,1,0,5.09-5.09A5.09,5.09,0,0,0,52.41,259.43Z"/><path d="M104.89,259.43a5.09,5.09,0,1,0,5.09-5.09A5.09,5.09,0,0,0,104.89,259.43Z"/><rect x="56.3" y="182.34" width="1.3" height="78.75"/><rect x="109.46" y="182.34" width="1.29" height="78.75"/><polygon class="cls-1" points="230.69 506.11 274.51 506.67 275.73 494.7 229.16 497.07 230.69 506.11"/><path class="cls-1" d="M554.71,480.51l-2.41,29.72-42.59-.54,0-.05L505.23,483Z"/><path class="cls-1" d="M272,541.89l.43,5.49-41.74,1.47.46-8.55a25.86,25.86,0,0,1-5-15.25,26.29,26.29,0,0,1,.68-5.93l50.88,1.12a26.32,26.32,0,0,1,.44,4.81A25.9,25.9,0,0,1,272,541.89Z"/><path class="cls-1" d="M556.63,526.39l-52-1.14a25.85,25.85,0,0,0,4.1,13.8l44.73-1.57Z"/><polygon class="cls-1" points="274.06 567.89 229.12 578.66 229.99 562.48 273.64 562.48 274.06 567.89"/><polygon class="cls-1" points="278.18 620.69 226.43 628.75 228.17 596.35 275.87 591.16 278.18 620.69"/><polygon class="cls-1" points="553.27 577.83 507.22 585 508.25 565.83 551.97 561.07 553.27 577.83"/><polygon class="cls-1" points="505.69 613.55 555.94 612.02 554.91 598.79 505.93 609.21 505.69 613.55"/><path class="cls-1" d="M224.14,648.59l55.92-3.78.63,8.06c.71.81,1.39,1.65,2,2.52l-67.41,3.66Z"/><polygon class="cls-1" points="557.86 636.61 504.73 631.58 504.09 643.37 558.16 640.43 557.86 636.61"/><path class="cls-1" d="M559.91,416.38l-.15,1.81,1,2.33h-1.16l-1.34,16.56-57.52,19.29-2.12-12.54A121.87,121.87,0,0,1,482.17,445c-1.69,0-3.37,0-5.05-.11l97.26-43.09A119.73,119.73,0,0,1,559.91,416.38Z"/><path class="cls-1" d="M426.32,431.18,601.11,308.47a120.95,120.95,0,0,1,0,32.77h0L441.19,437.77Z"/><path class="cls-1" d="M362,464l26.68-129.19,132-123.69a119.4,119.4,0,0,0-23.93-5.44L371.66,289.53,302.88,175.32H266.62L355,316.67,334.34,474.81Z"/><polygon class="cls-1" points="454.77 204.02 374.66 258.86 366.66 242.68 413.43 204.02 454.77 204.02"/><polygon class="cls-1" points="374.81 204.02 355.66 230.34 350.69 197.77 356.94 204.02 374.81 204.02"/><path class="cls-1" d="M594.89,283.48,422,428.79a121,121,0,0,1-10.62-6.94,143.55,143.55,0,0,1-12.33,14.62L411.22,351,542.08,220.83a119.66,119.66,0,0,1,13.24,8.85L437.22,357.49l155.54-79.43C593.51,279.85,594.23,281.65,594.89,283.48Z"/><path class="cls-1" d="M585.54,263.81,522.42,294,577,251.18A116.92,116.92,0,0,1,585.54,263.81Z"/><path class="cls-1" d="M309.45,479.24l-17.68.43-49.41-69.14-44.94,28.3a143.16,143.16,0,0,1-15.64-18.31H145.26l-5.89-21.35,40.36,11.36L244,387.87Z"/><path class="cls-1" d="M271.66,470.32l-47.45-2.55-1.54-9.08a136.63,136.63,0,0,1-12.73-8.88L234.16,438Z"/><polygon class="cls-1" points="226.83 483.27 262.66 483.27 228.04 490.41 226.83 483.27"/><polygon class="cls-1" points="261.87 323.45 322.66 441.2 242.36 336.09 227.86 156.31 251.75 175.32 331.66 316.67 257.66 227.3 261.87 323.45"/><polygon class="cls-1" points="220.23 305.71 135.99 386.94 126.46 352.38 201.1 296 191.58 127.43 209.08 141.35 220.23 305.71"/><polygon class="cls-1" points="179.9 118.13 176.73 275.66 162.87 104.58 179.9 118.13"/><polygon class="cls-1" points="120.57 331.06 159.45 281.51 157.87 100.59 148.45 93.1 141.23 105.66 143.59 275.04 121.51 313.44 114.42 308.76 120.57 331.06"/><path class="cls-5" d="M602.23,324.89a120.8,120.8,0,0,1-1.11,16.35h0a119.4,119.4,0,0,1-26.73,60.49h0a119.73,119.73,0,0,1-14.47,14.63l-.15,1.81,1,2.33h-1.16l-1.34,16.56-3.53,43.43-2.41,29.72,0,.34a25.88,25.88,0,0,1,4.4,14.48c0,.45,0,.9,0,1.34a26,26,0,0,1-6.16,15.5l1.5,19.18,1.3,16.76,1.64,21,1,13.23,1.92,24.59.3,3.82,1,12.44a40.33,40.33,0,0,1,10,26.68h-81a40.4,40.4,0,0,1,15.7-32l.22-4.18.64-11.79,1-18,.24-4.34L507.22,585l1-19.17,1.37-25.53c-.3-.41-.58-.82-.85-1.25a25.85,25.85,0,0,1-4.1-13.8v-.2a25.86,25.86,0,0,1,5-15.36l0-.05L505.23,483l-4.51-26.65-2.12-12.54A121.87,121.87,0,0,1,482.17,445c-1.69,0-3.37,0-5.05-.11h0a119.45,119.45,0,0,1-35.92-7.07,117.83,117.83,0,0,1-14.87-6.59q-2.19-1.14-4.32-2.39a121,121,0,0,1-10.62-6.94A142.31,142.31,0,0,1,362,464a141.27,141.27,0,0,1-52.59,15.21q-6.12.52-12.38.53c-1.77,0-3.54,0-5.3-.1a141.72,141.72,0,0,1-14.38-1.27l-1.66,16.3-1.22,12-.44,4.28a26,26,0,0,1,3.72,9.29,26.32,26.32,0,0,1,.44,4.81,25.9,25.9,0,0,1-6.2,16.84l.43,5.49,1.18,15.1.42,5.41,1.81,23.26h0l2.31,29.53,1.88,24.12.63,8.06c.71.81,1.39,1.65,2,2.52a40.27,40.27,0,0,1,8,24.16h-81a40.49,40.49,0,0,1,14.41-31c.42-.36.84-.7,1.28-1l1-18.8,1.74-32.4,1-17.69.87-16.18.73-13.63.46-8.55a25.86,25.86,0,0,1-5-15.25,26.29,26.29,0,0,1,.68-5.93,25.8,25.8,0,0,1,4.38-9.48l-.6-3.53-1.53-9L228,490.41l-1.21-7.14-2.62-15.5-1.54-9.08a145.17,145.17,0,0,1-25.25-19.86,143.16,143.16,0,0,1-15.64-18.31H145.26l-5.89-21.35L136,386.94l-9.53-34.56-5.89-21.32-6.15-22.3L92.31,228.65,133.43,50.4l9.09,38,5.93,4.72,9.42,7.49,5,4,17,13.55,11.68,9.3,17.5,13.92,18.78,15,23.89,19h76.5l22.44,22.45,6.25,6.25H470.48l.55,1.33c3.67-.34,7.39-.52,11.14-.52a121.43,121.43,0,0,1,14.61.88,119.85,119.85,0,0,1,58.54,24A120.61,120.61,0,0,1,577,251.18a121.87,121.87,0,0,1,15.81,26.88c.75,1.79,1.47,3.59,2.13,5.42a118.73,118.73,0,0,1,6.22,25A120.22,120.22,0,0,1,602.23,324.89Z"/><polygon points="203.73 704.05 284.23 704.05 284.23 679.05 215.23 679.05 203.73 704.05"/><polygon points="482.18 704.05 562.68 704.05 562.68 679.05 493.68 679.05 482.18 704.05"/><polygon class="cls-1" points="243.98 329.62 176.73 381.4 256.66 347.78 243.98 329.62"/><polygon class="cls-1" points="351.27 414.59 300.66 310.1 356.66 372.24 356.66 417.83 351.27 414.59"/></svg>