<svg xmlns="http://www.w3.org/2000/svg" xmlns:xlink="http://www.w3.org/1999/xlink" viewBox="0 0 695.7 663.79"><defs><style>.cls-1{fill:#716558;}.cls-13,.cls-16,.cls-2,.cls-21,.cls-23{fill:none;}.cls-3{fill:#231f20;}.cls-4{fill:#fff;}.cls-5{fill:#333;}.cls-6{fill:#e6e7e8;}.cls-7{fill:#cfa16a;}.cls-8{clip-path:url(#clip-path);}.cls-10,.cls-9{fill:#4f2925;}.cls-10{stroke:#f7e494;stroke-miterlimit:10;stroke-width:4px;}.cls-11{fill:#f7e494;}.cls-12{fill:#d3e736;}.cls-13,.cls-20{stroke:#64b145;}.cls-13,.cls-16,.cls-21,.cls-23{stroke-width:0.8px;}.cls-14{fill:#64b145;}.cls-15{fill:#3c4981;}.cls-16{stroke:#fff;}.cls-17{fill:#7580be;}.cls-18{clip-path:url(#clip-path-2);}.cls-19{fill:#3a4b9a;}.cls-20,.cls-22{fill:#009345;}.cls-21{stroke:#d3e736;}.cls-23{stroke:#009345;}</style><clipPath id="clip-path"><path class="cls-1" d="M366.47,443.08s2.13-33-25.87-33C340.6,410.11,335.64,441,366.47,443.08Z"/></clipPath><clipPath id="clip-path-2"><path class="cls-2" d="M422.19,169.39c-8.69,8.69-28.37,59.84-28.37,59.84s51.14-19.69,59.83-28.38a22.25,22.25,0,0,0-31.46-31.46Z"/></clipPath></defs><title>animal-trio</title><g id="Goose"><g id="feet"><polygon class="cls-3" points="209.99 177.16 212.92 209.42 214.27 177.2 209.99 177.16"/><polygon class="cls-3" points="218.18 177.16 221.11 209.42 222.46 177.2 218.18 177.16"/><path class="cls-3" d="M213.56,210.17a12,12,0,0,1-.76,2.14,12,12,0,0,1-.77-2.14.77.77,0,0,1,1.53,0Z"/><path class="cls-3" d="M210.13,210.17a12,12,0,0,1-.76,2.14,12,12,0,0,1-.76-2.14.76.76,0,1,1,1.52,0Z"/><path class="cls-3" d="M206.25,210.17a12,12,0,0,1-.76,2.14,12,12,0,0,1-.77-2.14.75.75,0,0,1,.76-.76A.76.76,0,0,1,206.25,210.17Z"/><path class="cls-3" d="M229.09,210.17a12,12,0,0,1-.76,2.14,12,12,0,0,1-.77-2.14.77.77,0,0,1,1.53,0Z"/><path class="cls-3" d="M225.66,210.17a12,12,0,0,1-.76,2.14,12,12,0,0,1-.76-2.14.76.76,0,0,1,1.52,0Z"/><path class="cls-3" d="M221.78,210.17a12,12,0,0,1-.76,2.14,12,12,0,0,1-.77-2.14.77.77,0,0,1,1.53,0Z"/></g><g id="neck-and-face"><path id="head" class="cls-3" d="M187.65,123.61H153.07V30.4l-.62,0h0A132.21,132.21,0,0,1,137.75,28h-.06c-2.68-.55-5.38-1.15-8-1.75-9.31-2.16-17.18-4.33-17.18-4.33s7.73-5,16.42-10.19c8.45-5,17.81-10.26,21.86-11.27A15.33,15.33,0,0,1,168,22.6l15.54,79.82h0L185,110Z"/><path id="white-spot-face" class="cls-4" d="M153.07,30.45a10.61,10.61,0,0,0,3.17-.45,6.65,6.65,0,0,0-5.06-12.31C148.55,18.76,141,25.14,137.69,28Z"/><path id="beak-fill" class="cls-5" d="M136.59,19.36l-6.88,6.88c-9.31-2.16-17.18-4.33-17.18-4.33s7.73-5,16.42-10.19Z"/><path id="eye-outline" class="cls-5" d="M140.43,16.36A2.57,2.57,0,1,0,143,13.79,2.57,2.57,0,0,0,140.43,16.36Z"/><path id="eye-oval-fill" class="cls-3" d="M141,16.36a2,2,0,1,0,2-2A2,2,0,0,0,141,16.36Z"/><path id="eye-oval-white-fill" class="cls-4" d="M143,15.87a.49.49,0,1,0,.49-.49A.49.49,0,0,0,143,15.87Z"/><path id="beak-hole" class="cls-3" d="M127.1,15a11.82,11.82,0,0,1,2.05-1,11.82,11.82,0,0,1-1,2,.76.76,0,0,1-1.08,0A.78.78,0,0,1,127.1,15Z"/></g><path id="underbelly" class="cls-4" d="M149.19,110a68.25,68.25,0,0,0,136.49,0Z"/><path id="frontbelly" class="cls-4" d="M153,92.2a38.33,38.33,0,1,0,54.2,54.2Z"/><path id="back-feathers-white" class="cls-4" d="M296.86,121.63H210.62a7.92,7.92,0,0,0-7.91,7.64h-.1a7.93,7.93,0,0,0-7.92,7.89,7.94,7.94,0,0,0-7.89,7.93H281a7.93,7.93,0,0,0,7.93-7.89,7.92,7.92,0,0,0,7.87-7.64h.1a7.92,7.92,0,0,0,7.92-7.93Z"/><path id="back-feathers-black" class="cls-3" d="M323.24,106.82H229.06a7.91,7.91,0,0,0-7.89,7.31,7.93,7.93,0,0,0-7.31,7.9H308a7.94,7.94,0,0,0,7.9-7.32A7.92,7.92,0,0,0,323.24,106.82Z"/><path id="front-feathers-black" class="cls-3" d="M223.49,102.44l-53.82,0a45.45,45.45,0,0,0,45.43,45.47l35,0Z"/><path id="front-feathers-gray" class="cls-6" d="M229,102.44l-53.82,0a45.45,45.45,0,0,0,45.43,45.47l35,0Z"/><path id="mid-feathers-black" class="cls-5" d="M278.73,139.86a7.92,7.92,0,0,0-7.88-7.11h-.07a7.9,7.9,0,0,0-7.58-7.6,7.93,7.93,0,0,0-7.7-7.45,7.92,7.92,0,0,0-7.92-7.72h0a7.93,7.93,0,0,0-7.91-7.53l-28.28,0h-7.93a7.91,7.91,0,0,0,7.92,7.93h0a7.92,7.92,0,0,0,7.7,7.52,7.91,7.91,0,0,0,7.59,7.71,7.93,7.93,0,0,0,7.91,7.46h.06a7.91,7.91,0,0,0,7.6,7.6,7.94,7.94,0,0,0,7.89,7.11h36.21A7.92,7.92,0,0,0,278.73,139.86Z"/><g id="feather-outline-group"><rect id="feather-outline" class="cls-6" x="234.04" y="88.45" width="0.56" height="51.21" transform="translate(119.83 348.16) rotate(-89.89)"/><rect id="feather-outline-2" data-name="feather-outline" class="cls-6" x="200.59" y="106" width="51.21" height="0.56"/><rect id="feather-outline-3" data-name="feather-outline" class="cls-6" x="241.44" y="96.21" width="0.56" height="51.21" transform="matrix(0, -1, 1, 0, 119.6, 363.39)"/><rect id="feather-outline-4" data-name="feather-outline" class="cls-6" x="249.93" y="103.84" width="0.56" height="51.21" transform="translate(120.44 379.49) rotate(-89.93)"/><rect id="feather-outline-5" data-name="feather-outline" class="cls-6" x="256.72" y="110.63" width="0.56" height="51.21" transform="translate(120.43 393.07) rotate(-89.93)"/><rect id="feather-outline-6" data-name="feather-outline" class="cls-6" x="263.82" y="117.73" width="0.56" height="51.21" transform="translate(120.42 407.25) rotate(-89.93)"/></g></g><polygon id="Triangle" class="cls-4" points="493.46 35.62 0 607.95 493.96 607.95 493.46 35.62"/><g id="Antelope"><path id="hindleg-chocolate" class="cls-1" d="M227.45,443a9.3,9.3,0,0,1,3.4-7.19l-19.8-84.35h33.57l-2,84.35a9.29,9.29,0,0,1,.11,14.28l8.23,106H235.27l-4.52-106A9.28,9.28,0,0,1,227.45,443Z"/><path id="hindleg-chocolate-2" data-name="hindleg-chocolate" class="cls-1" d="M132,443a9.3,9.3,0,0,1,3.4-7.19l-2-84.35h33.69l-19.92,84.35a9.29,9.29,0,0,1,.11,14.28l-3.46,106H128.13l7.17-106A9.28,9.28,0,0,1,132,443Z"/><path id="foreleg-caramel" class="cls-7" d="M275.18,443a9.3,9.3,0,0,1,3.4-7.19l-2-84.35h15.73l-2,84.35a9.29,9.29,0,0,1,.11,14.28l1.85,106H276.62l1.86-106A9.28,9.28,0,0,1,275.18,443Z"/><path id="horn" class="cls-1" d="M386.45,454.32s5.15-34.48,6.61-44.23-2.19-15.19-11-16.51-9.62-8.24-8.73-14.18S383,314.54,383,314.54s-14.7,55.88-16.6,64.7-3,17.54,7.85,20.46,10,4.75,8.13,17.47c-3.25,21.79-5.8,35.75-5.8,35.75Z"/><path id="ear" class="cls-1" d="M369.61,453.36s24.82-21.82,5-41.61C374.63,411.75,349.31,430.06,369.61,453.36Z"/><path id="ear-2" data-name="ear" class="cls-1" d="M369.61,453.36s24.82-21.82,5-41.61C374.63,411.75,349.31,430.06,369.61,453.36Z"/><rect id="rump" class="cls-7" x="130.94" y="245.47" width="143.52" height="137.96"/><polygon class="cls-7" points="387.81 474.66 383 488.87 382.38 549.26 355.8 549.26 341.92 514.69 315.13 447.99 290.4 435.46 278.44 429.4 243.22 411.56 238.62 409.22 222.72 401.17 219.69 399.63 206.22 392.8 187.71 383.43 181.18 380.12 202.34 349.58 205.29 345.3 209.74 338.89 274.46 245.47 366.73 420.11 370.71 427.66 373.33 432.62 387.69 432.62 387.73 445.84 387.81 474.66"/><path id="eye-detail" class="cls-1" d="M370.94,477.5c0,3.42-6.2,13.2-6.2,13.2s-6.21-9.78-6.21-13.2a6.21,6.21,0,0,1,12.41,0Z"/><path class="cls-1" d="M366.47,443.08s2.13-33-25.87-33C340.6,410.11,335.64,441,366.47,443.08Z"/><g class="cls-8"><path class="cls-1" d="M366.47,443.08s2.13-33-25.87-33C340.6,410.11,335.64,441,366.47,443.08Z"/><path class="cls-4" d="M363.87,439.34s1.88-29.24-22.94-29.23C340.93,410.11,336.53,437.46,363.87,439.34Z"/><polygon class="cls-9" points="355.06 410.11 338.76 424.45 337.7 412.58 337.7 410.11 337.7 406.91 355.06 410.11"/></g><path id="eyeball" class="cls-10" d="M370,476.79a5.22,5.22,0,1,1-5.22-5.22A5.22,5.22,0,0,1,370,476.79Z"/><circle id="eyeball-reflection" class="cls-4" cx="362.49" cy="474.49" r="1.06"/><path class="cls-1" d="M361.16,533.27v16H355.9a25.69,25.69,0,0,1,3.52-13.66c.32-.53.63-1,.89-1.32A9.37,9.37,0,0,1,361.16,533.27Z"/><path id="face-detail" class="cls-9" d="M382.37,549.26V522.64s-8.76,8.55-8.76,26.62Z"/><path class="cls-4" d="M368.81,531.7v17.56h-13l-13.88-34.57h5.69C358.4,514.69,368.81,517.87,368.81,531.7Z"/><path id="hind-white-spot" class="cls-4" d="M238.61,409.22,187.7,383.43H130.94V327.14C227.77,330.88,238.11,405.12,238.61,409.22Z"/><path id="antler" class="cls-9" d="M380.33,446.57V401.85c0-9.86-4.4-14.7-13.34-14.7s-10.73-6.73-10.73-12.73V308.83s-6.29,57.44-6.86,66.45-.36,17.78,10.79,19.07,10.62,3.22,10.62,16.08c0,22-.45,36.22-.45,36.22Z"/><path id="leg-caramel" class="cls-7" d="M203.63,443a9.3,9.3,0,0,1,3.4-7.19l-2-102.23,15.73,17.88-2,84.35A9.29,9.29,0,0,1,219,450.1l1.85,106H205.07l1.86-106A9.25,9.25,0,0,1,203.63,443Z"/><polygon id="leg-detail" class="cls-4" points="220.8 556.13 216.9 533.27 215.48 537.88 214.24 533.27 205.07 556.13 220.8 556.13"/><polygon id="leg-detail-2" data-name="leg-detail" class="cls-9" points="219.03 556.13 215.31 546.74 209.46 556.13 219.03 556.13"/><polygon id="leg-detail-3" data-name="leg-detail" class="cls-4" points="292.35 556.13 288.45 533.27 287.04 537.88 285.79 533.27 276.62 556.13 292.35 556.13"/><polygon id="leg-detail-4" data-name="leg-detail" class="cls-9" points="290.58 556.13 286.86 546.74 281.01 556.13 290.58 556.13"/><path id="tail" class="cls-4" d="M130.94,245.54s-16.74,2.6-16.74,22h16.74Z"/><path class="cls-11" d="M360.31,533.66v15.6h-3.47a41.85,41.85,0,0,1,2.58-13.66A14.72,14.72,0,0,1,360.31,533.66Z"/></g><g id="Peacock"><polygon class="cls-12" points="538.87 393.6 543.31 630.79 545.36 393.85 538.87 393.6"/><polygon class="cls-12" points="551.29 393.6 555.73 630.79 557.78 393.85 551.29 393.6"/><line class="cls-13" x1="643.99" y1="394.12" x2="643.99" y2="542.16"/><path class="cls-14" d="M631.84,563.52c0-6.7,12.13-15.64,12.13-15.64s12.13,8.94,12.13,15.64a12.13,12.13,0,0,1-24.26,0Z"/><path class="cls-12" d="M634,563.21c0-5.52,10-12.89,10-12.89s10,7.37,10,12.89a10,10,0,1,1-20,0Z"/><path class="cls-15" d="M635.83,562.94c0-4.5,8.14-10.5,8.14-10.5s8.15,6,8.15,10.5a8.15,8.15,0,1,1-16.29,0Z"/><polyline class="cls-13" points="630.67 558.11 643.95 544.83 657.22 558.11"/><polyline class="cls-13" points="630.67 555.3 643.95 542.02 657.22 555.3"/><path class="cls-16" d="M644.21,588.66a26.92,26.92,0,1,0-26.91-26.92A26.91,26.91,0,0,0,644.21,588.66Z"/><path class="cls-16" d="M644.21,592.53a30.79,30.79,0,1,0-30.79-30.79A30.79,30.79,0,0,0,644.21,592.53Z"/><path class="cls-17" d="M644.58,569.61A2.62,2.62,0,1,0,642,567,2.62,2.62,0,0,0,644.58,569.61Z"/><rect class="cls-12" x="469.87" y="118.39" width="12.42" height="53.28" transform="translate(45.95 395.38) rotate(-47.14)"/><path class="cls-15" d="M457.44,174.44s9.39,13.52,9.39,60.18,44.44,57.14,53.28,57.14H443.92V235.54c0-9.21,1.29-28.16-7.18-28.16"/><path class="cls-15" d="M541.83,291.75A102.43,102.43,0,0,1,644.26,394.18H541.83"/><path class="cls-14" d="M450.73,161.47c2.85-2.85,32.29-24.89,32.29-24.89s-19.14,32.35-22,35.19a7.28,7.28,0,0,1-10.3-10.3Z"/><path class="cls-15" d="M422.19,169.39c-8.69,8.69-28.37,59.84-28.37,59.84s51.14-19.69,59.83-28.38a22.25,22.25,0,0,0-31.46-31.46Z"/><path class="cls-15" d="M443.79,291.75A102.43,102.43,0,0,0,546.22,394.18V291.75"/><path class="cls-14" d="M424.16,186.06C427.34,182.89,446,175.7,446,175.7s-7.19,18.68-10.36,21.85a8.12,8.12,0,1,1-11.49-11.49Z"/><path class="cls-12" d="M436.29,181.56c1.09-1.09,7.52-3.57,7.52-3.57s-2.48,6.43-3.57,7.53a2.8,2.8,0,1,1-3.95-4Z"/><path class="cls-4" d="M423.16,192.57a6,6,0,1,0,6-6A6,6,0,0,0,423.16,192.57Z"/><path class="cls-12" d="M424.52,192.57a4.63,4.63,0,1,0,4.63-4.64A4.63,4.63,0,0,0,424.52,192.57Z"/><path class="cls-17" d="M425.53,192.57a3.62,3.62,0,1,0,3.62-3.62A3.63,3.63,0,0,0,425.53,192.57Z"/><path class="cls-4" d="M429.15,191.68a.89.89,0,1,0,.89-.89A.89.89,0,0,0,429.15,191.68Z"/><g class="cls-18"><polygon class="cls-4" points="431.51 216.92 447.7 178.99 438.01 217.21 431.51 216.92"/><polygon class="cls-4" points="403.47 204.08 421.03 205.11 417.79 220.16 390.78 231.09 403.47 204.08"/></g><path class="cls-17" d="M405.53,208.64a18.11,18.11,0,0,1,3.11-1.47,18.11,18.11,0,0,1-1.47,3.11,1.16,1.16,0,0,1-1.64-1.64Z"/><rect class="cls-17" x="388.41" y="214.86" width="42.46" height="0.91" transform="translate(-38.77 329.73) rotate(-42.04)"/><rect class="cls-19" x="453.8" y="162.42" width="54.06" height="0.91" transform="translate(-23.71 219.13) rotate(-25.07)"/><path class="cls-19" d="M501.32,147.83l-.44-.77-45.6,26,.43.76Z"/><path class="cls-19" d="M497.12,143.8l-.49-.71-42.21,29.06.48.71Z"/><path class="cls-19" d="M492.92,139.77l-.54-.66-38.83,32.17.55.65Z"/><path class="cls-19" d="M488.72,135.73l-.59-.59-35.44,35.27.6.59Z"/><path class="cls-19" d="M484.52,131.7l-.64-.54-32.05,38.38.65.54Z"/><path class="cls-19" d="M480.32,127.67l-.69-.48L451,168.67l.7.48Z"/><path class="cls-19" d="M476.13,123.64l-.75-.43L450.11,167.8l.75.42Z"/><path class="cls-19" d="M471.93,119.6l-.81-.36-21.87,47.69.8.37Z"/><path class="cls-19" d="M467.73,115.57l-.86-.31-18.49,50.8.86.31Z"/><path class="cls-14" d="M464.92,115.09a2.44,2.44,0,1,0,2.8-2A2.43,2.43,0,0,0,464.92,115.09Z"/><path class="cls-14" d="M469.12,119.07a2.45,2.45,0,1,0,2.81-2A2.45,2.45,0,0,0,469.12,119.07Z"/><path class="cls-14" d="M473.33,123.05a2.44,2.44,0,1,0,2.81-2A2.45,2.45,0,0,0,473.33,123.05Z"/><path class="cls-14" d="M477.57,127.07a2.44,2.44,0,1,0,2.81-2A2.44,2.44,0,0,0,477.57,127.07Z"/><path class="cls-14" d="M481.79,131a2.44,2.44,0,1,0,2.8-2A2.44,2.44,0,0,0,481.79,131Z"/><path class="cls-14" d="M486,135a2.44,2.44,0,1,0,2.8-2A2.44,2.44,0,0,0,486,135Z"/><path class="cls-14" d="M490.31,139a2.44,2.44,0,1,0,2.8-2A2.44,2.44,0,0,0,490.31,139Z"/><path class="cls-14" d="M494.5,143.08a2.45,2.45,0,1,0,2.81-2A2.45,2.45,0,0,0,494.5,143.08Z"/><path class="cls-14" d="M498.74,147.1a2.45,2.45,0,1,0,2.81-2A2.44,2.44,0,0,0,498.74,147.1Z"/><path class="cls-14" d="M502.92,151.07a2.44,2.44,0,1,0,2.8-2A2.44,2.44,0,0,0,502.92,151.07Z"/><path class="cls-20" d="M546.22,394.18A102.43,102.43,0,0,1,443.79,291.75Z"/><g id="concentric-lines-green"><path class="cls-21" d="M504.84,346.78a64.11,64.11,0,0,1-14.11-13.94Z"/><path class="cls-21" d="M510.11,352a66.2,66.2,0,0,1-24.69-24.42l5.3,5.25h0l14.11,13.94,0,0Z"/><path class="cls-21" d="M513.81,355.65A67.65,67.65,0,0,1,481.75,324l3.67,3.63,5.3,5.25h0l14.11,13.94,0,0,5.25,5.2Z"/><path class="cls-21" d="M516.85,358.66A69.18,69.18,0,0,1,478.72,321l3,3,3.67,3.63,5.3,5.25h0l14.11,13.94,0,0,5.25,5.2,3.7,3.65Z"/><path class="cls-21" d="M519.52,361.3a70.64,70.64,0,0,1-43.48-43l2.68,2.65,3,3,3.67,3.63,5.3,5.25h0l14.11,13.94,0,0,5.25,5.2,3.7,3.65,3,3Z"/><path class="cls-21" d="M522,363.7a72.17,72.17,0,0,1-48.35-47.81l2.44,2.42,2.68,2.65,3,3,3.67,3.63,5.3,5.25h0l14.11,13.94,0,0,5.25,5.2,3.7,3.65,3,3,2.67,2.64Z"/><path class="cls-21" d="M524.2,365.93a73.73,73.73,0,0,1-52.84-52.24l2.24,2.2,2.44,2.42,2.68,2.65,3,3,3.67,3.63,5.3,5.25h0l14.11,13.94,0,0,5.25,5.2,3.7,3.65,3,3,2.67,2.64,2.43,2.4Z"/><path class="cls-21" d="M526.32,368a75.25,75.25,0,0,1-57.09-56.46l2.13,2.12,2.24,2.2,2.44,2.42,2.68,2.65,3,3,3.67,3.63,5.3,5.25h0l14.11,13.94,0,0,5.25,5.2,3.7,3.65,3,3,2.67,2.64,2.43,2.4,2.25,2.23Z"/><path class="cls-21" d="M528.32,370a76.74,76.74,0,0,1-61.09-60.4l2,2,2.13,2.12,2.24,2.2,2.44,2.42,2.68,2.65,3,3,3.67,3.63,5.3,5.25h0l14.11,13.94,0,0,5.25,5.2,3.7,3.65,3,3,2.67,2.64,2.43,2.4,2.25,2.23,2.12,2.1Z"/><path class="cls-21" d="M530.25,371.91a78.28,78.28,0,0,1-64.93-64.2l1.91,1.89,2,2,2.13,2.12,2.24,2.2,2.44,2.42,2.68,2.65,3,3,3.67,3.63,5.3,5.25h0l14.11,13.94,0,0,5.25,5.2,3.7,3.65,3,3,2.67,2.64,2.43,2.4,2.25,2.23,2.12,2.1,2,2Z"/><path class="cls-21" d="M532.1,373.74a79.82,79.82,0,0,1-68.63-67.86l1.85,1.83,1.91,1.89,2,2,2.13,2.12,2.24,2.2,2.44,2.42,2.68,2.65,3,3,3.67,3.63,5.3,5.25h0l14.11,13.94,0,0,5.25,5.2,3.7,3.65,3,3,2.67,2.64,2.43,2.4,2.25,2.23,2.12,2.1,2,2,1.93,1.91Z"/><path class="cls-21" d="M533.88,375.5a81.36,81.36,0,0,1-72.21-71.4l1.8,1.78,1.85,1.83,1.91,1.89,2,2,2.13,2.12,2.24,2.2,2.44,2.42,2.68,2.65,3,3,3.67,3.63,5.3,5.25h0l14.11,13.94,0,0,5.25,5.2,3.7,3.65,3,3,2.67,2.64,2.43,2.4,2.25,2.23,2.12,2.1,2,2,1.93,1.91,1.85,1.83Z"/><path class="cls-21" d="M535.62,377.22a82.88,82.88,0,0,1-75.68-74.83l1.73,1.71,1.8,1.78,1.85,1.83,1.91,1.89,2,2,2.13,2.12,2.24,2.2,2.44,2.42,2.68,2.65,3,3,3.67,3.63,5.3,5.25h0l14.11,13.94,0,0,5.25,5.2,3.7,3.65,3,3,2.67,2.64,2.43,2.4,2.25,2.23,2.12,2.1,2,2,1.93,1.91,1.85,1.83,1.78,1.76Z"/><path class="cls-21" d="M537.3,378.89a84.43,84.43,0,0,1-79-78.16l1.69,1.66,1.73,1.71,1.8,1.78,1.85,1.83,1.91,1.89,2,2,2.13,2.12,2.24,2.2,2.44,2.42,2.68,2.65,3,3,3.67,3.63,5.3,5.25h0l14.11,13.94,0,0,5.25,5.2,3.7,3.65,3,3,2.67,2.64,2.43,2.4,2.25,2.23,2.12,2.1,2,2,1.93,1.91,1.85,1.83,1.78,1.76,1.74,1.72Z"/><path class="cls-21" d="M539,380.52a86,86,0,0,1-82.37-81.44l1.66,1.65,1.69,1.66,1.73,1.71,1.8,1.78,1.85,1.83,1.91,1.89,2,2,2.13,2.12,2.24,2.2,2.44,2.42,2.68,2.65,3,3,3.67,3.63,5.3,5.25h0l14.11,13.94,0,0,5.25,5.2,3.7,3.65,3,3,2.67,2.64,2.43,2.4,2.25,2.23,2.12,2.1,2,2,1.93,1.91,1.85,1.83,1.78,1.76,1.74,1.72,1.68,1.67Z"/><path class="cls-21" d="M540.57,382.11A87.52,87.52,0,0,1,455,297.49l1.61,1.59,1.66,1.65,1.69,1.66,1.73,1.71,1.8,1.78,1.85,1.83,1.91,1.89,2,2,2.13,2.12,2.24,2.2,2.44,2.42,2.68,2.65,3,3,3.67,3.63,5.3,5.25h0l14.11,13.94,0,0,5.25,5.2,3.7,3.65,3,3,2.67,2.64,2.43,2.4,2.25,2.23,2.12,2.1,2,2,1.93,1.91,1.85,1.83,1.78,1.76,1.74,1.72,1.68,1.67,1.66,1.63Z"/><path class="cls-21" d="M542.16,383.69a89.08,89.08,0,0,1-88.76-87.77l1.58,1.57,1.61,1.59,1.66,1.65,1.69,1.66,1.73,1.71,1.8,1.78,1.85,1.83,1.91,1.89,2,2,2.13,2.12,2.24,2.2,2.44,2.42,2.68,2.65,3,3,3.67,3.63,5.3,5.25h0l14.11,13.94,0,0,5.25,5.2,3.7,3.65,3,3,2.67,2.64,2.43,2.4,2.25,2.23,2.12,2.1,2,2,1.93,1.91,1.85,1.83,1.78,1.76,1.74,1.72,1.68,1.67,1.66,1.63,1.61,1.59Z"/><path class="cls-21" d="M543.71,385.22c-.41,0-.83,0-1.24,0a90.63,90.63,0,0,1-90.63-90.63v-.22l1.56,1.53,1.58,1.57,1.61,1.59,1.66,1.65,1.69,1.66,1.73,1.71,1.8,1.78,1.85,1.83,1.91,1.89,2,2,2.13,2.12,2.24,2.2,2.44,2.42,2.68,2.65,3,3,3.67,3.63,5.3,5.25h0l14.11,13.94,0,0,5.25,5.2,3.7,3.65,3,3,2.67,2.64,2.43,2.4,2.25,2.23,2.12,2.1,2,2,1.93,1.91,1.85,1.83,1.78,1.76,1.74,1.72,1.68,1.67,1.66,1.63,1.61,1.59,1.59,1.58Z"/><path class="cls-21" d="M545.25,386.74c-.92,0-1.85.05-2.78.05a92.18,92.18,0,0,1-92.18-92.18c0-.58,0-1.16,0-1.74l1.53,1.52,1.56,1.53,1.58,1.57,1.61,1.59,1.66,1.65,1.69,1.66,1.73,1.71,1.8,1.78,1.85,1.83,1.91,1.89,2,2,2.13,2.12,2.24,2.2,2.44,2.42,2.68,2.65,3,3,3.67,3.63,5.3,5.25h0l14.11,13.94,0,0,5.25,5.2,3.7,3.65,3,3,2.67,2.64,2.43,2.4,2.25,2.23,2.12,2.1,2,2,1.93,1.91,1.85,1.83,1.78,1.76,1.74,1.72,1.68,1.67,1.66,1.63,1.61,1.59,1.59,1.58,1.55,1.53Z"/><path class="cls-21" d="M546.75,388.23c-1.42.07-2.84.1-4.28.1a93.72,93.72,0,0,1-93.73-93.72c0-1.08,0-2.16.06-3.23l1.51,1.49,1.53,1.52,1.56,1.53,1.58,1.57,1.61,1.59,1.66,1.65,1.69,1.66,1.73,1.71,1.8,1.78,1.85,1.83,1.91,1.89,2,2,2.13,2.12,2.24,2.2,2.44,2.42,2.68,2.65,3,3,3.67,3.63,5.3,5.25h0l14.11,13.94,0,0,5.25,5.2,3.7,3.65,3,3,2.67,2.64,2.43,2.4,2.25,2.23,2.12,2.1,2,2,1.93,1.91,1.85,1.83,1.78,1.76,1.74,1.72,1.68,1.67,1.66,1.63,1.61,1.59,1.59,1.58,1.55,1.53,1.54,1.52Z"/><path class="cls-21" d="M548.24,389.7c-1.91.12-3.83.18-5.77.18a95.27,95.27,0,0,1-95.27-95.27c0-1.58,0-3.15.11-4.7l1.49,1.47,1.51,1.49,1.53,1.52,1.56,1.53,1.58,1.57,1.61,1.59,1.66,1.65,1.69,1.66,1.73,1.71,1.8,1.78,1.85,1.83,1.91,1.89,2,2,2.13,2.12,2.24,2.2,2.44,2.42,2.68,2.65,3,3,3.67,3.63,5.3,5.25h0l14.11,13.94,0,0,5.25,5.2,3.7,3.65,3,3,2.67,2.64,2.43,2.4,2.25,2.23,2.12,2.1,2,2,1.93,1.91,1.85,1.83,1.78,1.76,1.74,1.72,1.68,1.67,1.66,1.63,1.61,1.59,1.59,1.58,1.55,1.53,1.54,1.52,1.5,1.49Z"/><path class="cls-21" d="M549.14,390.59c-65.34.82-104.4-46.8-102.43-101.28l.6.6,1.49,1.47,1.51,1.49,1.53,1.52,1.56,1.53,1.58,1.57,1.61,1.59,1.66,1.65,1.69,1.66,1.73,1.71,1.8,1.78,1.85,1.83,1.91,1.89,2,2,2.13,2.12,2.24,2.2,2.44,2.42,2.68,2.65,3,3,3.67,3.63,5.3,5.25h0l14.11,13.94,0,0,5.25,5.2,3.7,3.65,3,3,2.67,2.64,2.43,2.4,2.25,2.23,2.12,2.1,2,2,1.93,1.91,1.85,1.83,1.78,1.76,1.74,1.72,1.68,1.67,1.66,1.63,1.61,1.59,1.59,1.58,1.55,1.53,1.54,1.52,1.5,1.49,1.49,1.47Z"/><path class="cls-21" d="M549.14,390.59c-65.34.82-104.4-46.8-102.43-101.28l.6.6,1.49,1.47,1.51,1.49,1.53,1.52,1.56,1.53,1.58,1.57,1.61,1.59,1.66,1.65,1.69,1.66,1.73,1.71,1.8,1.78,1.85,1.83,1.91,1.89,2,2,2.13,2.12,2.24,2.2,2.44,2.42,2.68,2.65,3,3,3.67,3.63,5.3,5.25h0l14.11,13.94,0,0,5.25,5.2,3.7,3.65,3,3,2.67,2.64,2.43,2.4,2.25,2.23,2.12,2.1,2,2,1.93,1.91,1.85,1.83,1.78,1.76,1.74,1.72,1.68,1.67,1.66,1.63,1.61,1.59,1.59,1.58,1.55,1.53,1.54,1.52,1.5,1.49,1.49,1.47Z"/></g><path class="cls-17" d="M593.67,302.24H512A68.94,68.94,0,0,0,581,371.18h53.15"/><path class="cls-4" d="M533.56,302.24H499.88a28.44,28.44,0,0,0,28.45,28.44h21.92"/><path class="cls-17" d="M602,302.24H520.31a68.94,68.94,0,0,0,68.94,68.94H642.4"/><path class="cls-14" d="M608.37,325.68h12a12,12,0,0,0-12-12H553.43a12,12,0,0,0,12,12Z"/><path class="cls-14" d="M596.31,314.27h12a12,12,0,0,0-12-12H541.38a12,12,0,0,0,12,12Z"/><path class="cls-14" d="M620.07,337.38h12a12,12,0,0,0-12-12H565.14a12,12,0,0,0,12,12Z"/><path class="cls-14" d="M631.57,348.66h12a12,12,0,0,0-12-12H576.64a12,12,0,0,0,12,12Z"/><path class="cls-14" d="M655.17,371h12a12,12,0,0,0-12-12H600.24a12,12,0,0,0,12,12Z"/><path class="cls-14" d="M643.67,360.2h12a12,12,0,0,0-12-12H588.74a12,12,0,0,0,12,12Z"/><path class="cls-12" d="M619,325.68h12a12,12,0,0,0-12-12H564.06a12,12,0,0,0,12,12Z"/><path class="cls-12" d="M606.94,314.27h12a12,12,0,0,0-12-12H552a12,12,0,0,0,12,12Z"/><path class="cls-12" d="M630.7,337.38h12a12,12,0,0,0-12-12H575.76a12,12,0,0,0,12,12Z"/><path class="cls-12" d="M642.2,348.66h12a12,12,0,0,0-12-12H587.27a12,12,0,0,0,12,12Z"/><path class="cls-12" d="M665.8,371h12a12,12,0,0,0-12-12H610.87a12,12,0,0,0,12,12Z"/><path class="cls-12" d="M654.29,360.2h12a12,12,0,0,0-12-12H599.36a12,12,0,0,0,12,12Z"/><path class="cls-4" d="M630.22,325.68h12a12,12,0,0,0-12-12H575.29a12,12,0,0,0,12,12Z"/><path class="cls-4" d="M618.17,314.27h12a12,12,0,0,0-12-12H563.24a12,12,0,0,0,12,12Z"/><path class="cls-4" d="M641.92,337.38h12a12,12,0,0,0-12-12H587a12,12,0,0,0,12,12Z"/><rect class="cls-17" x="571.27" y="319.42" width="77.68" height="0.85"/><rect class="cls-17" x="558.94" y="307.64" width="77.68" height="0.85"/><rect class="cls-17" x="582.5" y="331.2" width="77.68" height="0.85"/><path class="cls-4" d="M653.42,348.66h12a12,12,0,0,0-12-12H598.49a12,12,0,0,0,12,12Z"/><path class="cls-4" d="M677,371h12a12,12,0,0,0-12-12H622.09a12,12,0,0,0,12,12Z"/><path class="cls-4" d="M665.52,360.2h12a12,12,0,0,0-12-12H610.59a12,12,0,0,0,12,12Z"/><rect id="light-purple-line" class="cls-17" x="595.38" y="342.75" width="77.68" height="0.85"/><rect id="light-purple-line-2" data-name="light-purple-line" class="cls-17" x="618.02" y="364.29" width="77.68" height="0.85"/><rect id="light-purple-line-3" data-name="light-purple-line" class="cls-17" x="605.69" y="353.06" width="77.68" height="0.85"/><g id="green-concentric-lines-group"><path class="cls-14" d="M573.16,436.52c6.7,0,15.63,12.13,15.63,12.13s-8.93,12.13-15.63,12.13a12.13,12.13,0,0,1,0-24.26Z"/><path class="cls-12" d="M573.47,438.66c5.52,0,12.88,10,12.88,10s-7.36,10-12.88,10a10,10,0,1,1,0-20Z"/><path class="cls-13" d="M643.81,399.83c0,56.72-49.3,108.22-106,108.22"/><path class="cls-13" d="M643.81,399.28c0,128.71-104.35,233.05-233,233.05"/><path class="cls-13" d="M643.81,399.28A168.3,168.3,0,0,1,475.52,567.57"/><path class="cls-13" d="M643.81,399.28a49.44,49.44,0,0,1-49.45,49.44"/><path class="cls-15" d="M573.73,440.51c4.5,0,10.5,8.14,10.5,8.14s-6,8.15-10.5,8.15a8.15,8.15,0,0,1,0-16.29Z"/><polyline class="cls-13" points="578.57 435.35 591.84 448.63 578.57 461.9"/><polyline class="cls-13" points="581.38 435.35 594.65 448.63 581.38 461.9"/><path class="cls-14" d="M516.61,495.83c6.7,0,15.64,12.13,15.64,12.13s-8.94,12.13-15.64,12.13a12.13,12.13,0,1,1,0-24.26Z"/><path class="cls-12" d="M516.92,498c5.52,0,12.89,10,12.89,10s-7.37,10-12.89,10a10,10,0,1,1,0-20Z"/><path class="cls-15" d="M517.19,499.81c4.5,0,10.49,8.15,10.49,8.15s-6,8.14-10.49,8.14a8.15,8.15,0,1,1,0-16.29Z"/><polyline class="cls-13" points="522.02 494.65 535.3 507.93 522.02 521.21"/><polyline class="cls-13" points="524.83 494.65 538.11 507.93 524.83 521.21"/><path class="cls-14" d="M454.26,555.42c6.7,0,15.64,12.13,15.64,12.13s-8.94,12.13-15.64,12.13a12.13,12.13,0,0,1,0-24.26Z"/><path class="cls-12" d="M454.57,557.55c5.52,0,12.88,10,12.88,10s-7.36,10-12.88,10a10,10,0,1,1,0-20Z"/><path class="cls-15" d="M454.84,559.4c4.5,0,10.49,8.15,10.49,8.15s-6,8.14-10.49,8.14a8.15,8.15,0,1,1,0-16.29Z"/><polyline class="cls-13" points="459.67 554.25 472.94 567.52 459.67 580.8"/><polyline class="cls-13" points="462.48 554.25 475.76 567.52 462.48 580.8"/><path class="cls-22" d="M389.38,620.23c6.7,0,15.64,12.13,15.64,12.13s-8.94,12.13-15.64,12.13a12.13,12.13,0,0,1,0-24.26Z"/><path class="cls-12" d="M389.69,622.36c5.52,0,12.89,10,12.89,10s-7.37,10-12.89,10a10,10,0,0,1,0-20Z"/><path class="cls-15" d="M390,624.22c4.5,0,10.5,8.14,10.5,8.14s-6,8.14-10.5,8.14a8.14,8.14,0,1,1,0-16.28Z"/><polyline class="cls-23" points="394.79 619.06 408.07 632.33 394.79 645.61"/><polyline class="cls-23" points="397.61 619.06 410.88 632.33 397.61 645.61"/></g><circle id="tail-circle-large" class="cls-16" cx="574.64" cy="449.3" r="26.91" transform="translate(-149.39 537.93) rotate(-45)"/><path id="tail-circle-large-2" data-name="tail-circle-large" class="cls-16" d="M543.85,449.3a30.79,30.79,0,1,0,30.79-30.79A30.8,30.8,0,0,0,543.85,449.3Z"/><path id="tail-circle-large-3" data-name="tail-circle-large" class="cls-16" d="M491.05,507.82A26.91,26.91,0,1,0,518,480.91,26.91,26.91,0,0,0,491.05,507.82Z"/><path id="tail-circle-large-4" data-name="tail-circle-large" class="cls-16" d="M487.17,507.82A30.79,30.79,0,1,0,518,477,30.8,30.8,0,0,0,487.17,507.82Z"/><path id="tail-circle-large-5" data-name="tail-circle-large" class="cls-16" d="M427.92,567.82a26.92,26.92,0,1,0,26.91-26.92A26.91,26.91,0,0,0,427.92,567.82Z"/><circle id="tail-circle-large-6" data-name="tail-circle-large" class="cls-16" cx="454.83" cy="567.82" r="30.79"/><circle id="tail-circle-large-7" data-name="tail-circle-large" class="cls-16" cx="391.16" cy="632.6" r="26.91" transform="translate(-332.75 461.87) rotate(-45)"/><circle id="tail-circle-large-8" data-name="tail-circle-large" class="cls-16" cx="391.16" cy="632.6" r="30.79"/><path id="tail-dot" class="cls-17" d="M447.89,567.91a2.62,2.62,0,1,0,2.62-2.63A2.62,2.62,0,0,0,447.89,567.91Z"/><path id="tail-dot-2" data-name="tail-dot" class="cls-17" d="M383.29,633a2.62,2.62,0,1,0,2.62-2.62A2.62,2.62,0,0,0,383.29,633Z"/><path id="tail-dot-3" data-name="tail-dot" class="cls-17" d="M510.83,507.91a2.62,2.62,0,1,0,2.62-2.62A2.62,2.62,0,0,0,510.83,507.91Z"/><path id="tail-dot-4" data-name="tail-dot" class="cls-17" d="M567.42,448.83a2.62,2.62,0,1,0,2.62-2.62A2.62,2.62,0,0,0,567.42,448.83Z"/><path id="tail-quarter-circle" class="cls-14" d="M644.26,394.18v15.93a15.93,15.93,0,0,1-15.93-15.93Z"/><path id="tail-quarter-circle-2" data-name="tail-quarter-circle" class="cls-12" d="M644.26,394.18v12.06a12.07,12.07,0,0,1-12.07-12.06Z"/><path class="cls-12" d="M543.31,626.86a1.15,1.15,0,0,0-1.15,1.16,18.13,18.13,0,0,0,1.15,3.24,18,18,0,0,0,1.16-3.24A1.16,1.16,0,0,0,543.31,626.86Z"/><path class="cls-12" d="M538.11,626.86A1.16,1.16,0,0,0,537,628a18,18,0,0,0,1.16,3.24,18,18,0,0,0,1.16-3.24A1.16,1.16,0,0,0,538.11,626.86Z"/><path class="cls-12" d="M532.22,626.86a1.16,1.16,0,0,0-1.16,1.16,18,18,0,0,0,1.16,3.24,18,18,0,0,0,1.16-3.24A1.16,1.16,0,0,0,532.22,626.86Z"/><path class="cls-12" d="M566.87,626.86a1.16,1.16,0,0,0-1.16,1.16,18,18,0,0,0,1.16,3.24A18.13,18.13,0,0,0,568,628,1.15,1.15,0,0,0,566.87,626.86Z"/><path class="cls-12" d="M561.67,626.86a1.16,1.16,0,0,0-1.16,1.16,18,18,0,0,0,1.16,3.24,18.13,18.13,0,0,0,1.15-3.24A1.15,1.15,0,0,0,561.67,626.86Z"/><path class="cls-12" d="M555.78,626.86a1.16,1.16,0,0,0-1.16,1.16,18,18,0,0,0,1.16,3.24,18.13,18.13,0,0,0,1.15-3.24A1.15,1.15,0,0,0,555.78,626.86Z"/><g id="white-lines-details"><rect class="cls-4" x="499.41" y="301.95" width="70.29" height="0.65" transform="translate(-57.05 466.97) rotate(-45.04)"/><rect class="cls-4" x="495.8" y="314.38" width="70.29" height="0.65" transform="translate(-66.97 467.79) rotate(-45.02)"/><rect class="cls-4" x="492.19" y="326.8" width="70.29" height="0.65" transform="translate(-76.65 469.6) rotate(-45.09)"/><rect class="cls-4" x="488.58" y="339.22" width="70.29" height="0.65" transform="translate(-86.56 470.43) rotate(-45.06)"/></g></g></svg>