<svg class="intro__illustration" xmlns="http://www.w3.org/2000/svg" viewBox="0 0 695.7 663.79"><defs><style>.intro-cls-1{fill:#716558}.intro-cls-13,.intro-cls-16,.intro-cls-21,.intro-cls-23{fill:none}.intro-cls-3{fill:#231f20}.intro-cls-4{fill:#fff}.intro-cls-5{fill:#333}.intro-cls-6{fill:#e6e7e8}.intro-cls-7{fill:#cfa16a}.intro-cls-9{fill:#4f2925}.intro-cls-12{fill:#d3e736}.intro-cls-13{stroke:#64b145}.intro-cls-13,.intro-cls-16,.intro-cls-21,.intro-cls-23{stroke-width:.8px}.intro-cls-14{fill:#64b145}.intro-cls-15{fill:#3c4981}.intro-cls-16{stroke:#fff}.intro-cls-17{fill:#7580be}.intro-cls-19{fill:#3a4b9a}.intro-cls-21{stroke:#d3e736}.intro-cls-23{stroke:#009345}</style><clipPath id="clip-path"><path d="M366.47 443.08s2.13-33-25.87-33c0 .03-4.96 30.92 25.87 33z" class="intro-cls-1"/></clipPath><clipPath id="clip-path-2"><path fill="none" d="M422.19 169.39c-8.69 8.69-28.37 59.84-28.37 59.84s51.14-19.69 59.83-28.38a22.25 22.25 0 0 0-31.46-31.46z"/></clipPath></defs><g id="Goose"><g id="feet"><path d="M209.99 177.16l2.93 32.26 1.35-32.22-4.28-.04zM218.18 177.16l2.93 32.26 1.35-32.22-4.28-.04zM213.56 210.17a12 12 0 0 1-.76 2.14 12 12 0 0 1-.77-2.14.77.77 0 0 1 1.53 0zM210.13 210.17a12 12 0 0 1-.76 2.14 12 12 0 0 1-.76-2.14.76.76 0 1 1 1.52 0zM206.25 210.17a12 12 0 0 1-.76 2.14 12 12 0 0 1-.77-2.14.75.75 0 0 1 .76-.76.76.76 0 0 1 .77.76zM229.09 210.17a12 12 0 0 1-.76 2.14 12 12 0 0 1-.77-2.14.77.77 0 0 1 1.53 0zM225.66 210.17a12 12 0 0 1-.76 2.14 12 12 0 0 1-.76-2.14.76.76 0 0 1 1.52 0zM221.78 210.17a12 12 0 0 1-.76 2.14 12 12 0 0 1-.77-2.14.77.77 0 0 1 1.53 0z" class="intro-cls-3"/></g><g id="neck-and-face"><path id="head" d="M187.65 123.61h-34.58V30.4h-.62a132.21 132.21 0 0 1-14.7-2.4h-.06a362.5 362.5 0 0 1-8-1.75c-9.31-2.16-17.18-4.33-17.18-4.33s7.73-5 16.42-10.19c8.45-5 17.81-10.26 21.86-11.27A15.33 15.33 0 0 1 168 22.6l15.54 79.82L185 110z" class="intro-cls-3"/><path id="white-spot-face" d="M153.07 30.45a10.61 10.61 0 0 0 3.17-.45 6.65 6.65 0 0 0-5.06-12.31C148.55 18.76 141 25.14 137.69 28z" class="intro-cls-4"/><path id="beak-fill" d="M136.59 19.36l-6.88 6.88c-9.31-2.16-17.18-4.33-17.18-4.33s7.73-5 16.42-10.19z" class="intro-cls-5"/><path id="eye-outline" d="M140.43 16.36a2.57 2.57 0 1 0 2.57-2.57 2.57 2.57 0 0 0-2.57 2.57z" class="intro-cls-5"/><path id="eye-oval-fill" d="M141 16.36a2 2 0 1 0 2-2 2 2 0 0 0-2 2z" class="intro-cls-3"/><path id="eye-oval-white-fill" d="M143 15.87a.49.49 0 1 0 .49-.49.49.49 0 0 0-.49.49z" class="intro-cls-4"/><path id="beak-hole" d="M127.1 15a11.82 11.82 0 0 1 2.05-1 11.82 11.82 0 0 1-1 2 .76.76 0 0 1-1.08 0 .78.78 0 0 1 .03-1z" class="intro-cls-3"/></g><path id="underbelly" d="M149.19 110a68.25 68.25 0 0 0 136.49 0z" class="intro-cls-4"/><path id="frontbelly" d="M153 92.2a38.33 38.33 0 1 0 54.2 54.2z" class="intro-cls-4"/><path id="back-feathers-white" d="M296.86 121.63h-86.24a7.92 7.92 0 0 0-7.91 7.64h-.1a7.93 7.93 0 0 0-7.92 7.89 7.94 7.94 0 0 0-7.89 7.93H281a7.93 7.93 0 0 0 7.93-7.89 7.92 7.92 0 0 0 7.87-7.64h.1a7.92 7.92 0 0 0 7.92-7.93z" class="intro-cls-4"/><path id="back-feathers-black" d="M323.24 106.82h-94.18a7.91 7.91 0 0 0-7.89 7.31 7.93 7.93 0 0 0-7.31 7.9H308a7.94 7.94 0 0 0 7.9-7.32 7.92 7.92 0 0 0 7.34-7.89z" class="intro-cls-3"/><path id="front-feathers-black" d="M223.49 102.44h-53.82a45.45 45.45 0 0 0 45.43 45.47h35z" class="intro-cls-3"/><path id="front-feathers-gray" d="M229 102.44h-53.82a45.45 45.45 0 0 0 45.43 45.47h35z" class="intro-cls-6"/><path id="mid-feathers-black" d="M278.73 139.86a7.92 7.92 0 0 0-7.88-7.11h-.07a7.9 7.9 0 0 0-7.58-7.6 7.93 7.93 0 0 0-7.7-7.45 7.92 7.92 0 0 0-7.92-7.72 7.93 7.93 0 0 0-7.91-7.53h-36.21a7.91 7.91 0 0 0 7.92 7.93 7.92 7.92 0 0 0 7.7 7.52 7.91 7.91 0 0 0 7.59 7.71 7.93 7.93 0 0 0 7.91 7.46h.06a7.91 7.91 0 0 0 7.6 7.6 7.94 7.94 0 0 0 7.89 7.11h36.21a7.92 7.92 0 0 0-7.61-7.92z" class="intro-cls-5"/><g id="feather-outline-group"><path id="feather-outline" d="M234.04 88.45h.56v51.21h-.56z" class="intro-cls-6" transform="rotate(-89.89 234.33 114.05)"/><path id="feather-outline-2" d="M200.59 106h51.21v.56h-51.21z" class="intro-cls-6" data-name="feather-outline"/><path id="feather-outline-3" d="M241.44 96.21h.56v51.21h-.56z" class="intro-cls-6" data-name="feather-outline" transform="rotate(-90 241.5 121.9)"/><path id="feather-outline-4" d="M249.93 103.84h.56v51.21h-.56z" class="intro-cls-6" data-name="feather-outline" transform="rotate(-89.93 250.2 129.45)"/><path id="feather-outline-5" d="M256.72 110.63h.56v51.21h-.56z" class="intro-cls-6" data-name="feather-outline" transform="rotate(-89.93 256.99 136.25)"/><path id="feather-outline-6" d="M263.82 117.73h.56v51.21h-.56z" class="intro-cls-6" data-name="feather-outline" transform="rotate(-89.93 264.08 143.34)"/></g></g><path id="Triangle" d="M493.46 35.62L0 607.95h493.96l-.5-572.33z" class="intro-cls-4"/><g id="Antelope"><path id="hindleg-chocolate" d="M227.45 443a9.3 9.3 0 0 1 3.4-7.19l-19.8-84.35h33.57l-2 84.35a9.29 9.29 0 0 1 .11 14.28l8.23 106h-15.69l-4.52-106a9.28 9.28 0 0 1-3.3-7.09z" class="intro-cls-1"/><path id="hindleg-chocolate-2" d="M132 443a9.3 9.3 0 0 1 3.4-7.19l-2-84.35h33.69l-19.92 84.35a9.29 9.29 0 0 1 .11 14.28l-3.46 106h-15.69l7.17-106A9.28 9.28 0 0 1 132 443z" class="intro-cls-1" data-name="hindleg-chocolate"/><path id="foreleg-caramel" d="M275.18 443a9.3 9.3 0 0 1 3.4-7.19l-2-84.35h15.73l-2 84.35a9.29 9.29 0 0 1 .11 14.28l1.85 106h-15.65l1.86-106a9.28 9.28 0 0 1-3.3-7.09z" class="intro-cls-7"/><path id="horn" d="M386.45 454.32l6.61-44.23c1.46-9.75-2.19-15.19-11-16.51s-9.62-8.24-8.73-14.18l9.67-64.86s-14.7 55.88-16.6 64.7-3 17.54 7.85 20.46 10 4.75 8.13 17.47c-3.25 21.79-5.8 35.75-5.8 35.75z" class="intro-cls-1"/><path id="ear" d="M369.61 453.36s24.82-21.82 5-41.61c.02 0-25.3 18.31-5 41.61z" class="intro-cls-1"/><path id="ear-2" d="M369.61 453.36s24.82-21.82 5-41.61c.02 0-25.3 18.31-5 41.61z" class="intro-cls-1" data-name="ear"/><path id="rump" d="M130.94 245.47h143.52v137.96H130.94z" class="intro-cls-7"/><path d="M387.81 474.66L383 488.87l-.62 60.39H355.8l-13.88-34.57-26.79-66.7-24.73-12.53-11.96-6.06-35.22-17.84-4.6-2.34-15.9-8.05-3.03-1.54-13.47-6.83-18.51-9.37-6.53-3.31 21.16-30.54 2.95-4.28 4.45-6.41 64.72-93.42 92.27 174.64 3.98 7.55 2.62 4.96h14.36l.04 13.22.08 28.82z" class="intro-cls-7"/><path id="eye-detail" d="M370.94 477.5c0 3.42-6.2 13.2-6.2 13.2s-6.21-9.78-6.21-13.2a6.21 6.21 0 0 1 12.41 0z" class="intro-cls-1"/><path d="M366.47 443.08s2.13-33-25.87-33c0 .03-4.96 30.92 25.87 33z" class="intro-cls-1"/><g clip-path="url(#clip-path)"><path d="M366.47 443.08s2.13-33-25.87-33c0 .03-4.96 30.92 25.87 33z" class="intro-cls-1"/><path d="M363.87 439.34s1.88-29.24-22.94-29.23c0 0-4.4 27.35 22.94 29.23z" class="intro-cls-4"/><path d="M355.06 410.11l-16.3 14.34-1.06-11.87v-5.67l17.36 3.2z" class="intro-cls-9"/></g><path id="eyeball" fill="#4f2925" stroke="#f7e494" stroke-miterlimit="10" stroke-width="4" d="M370 476.79a5.22 5.22 0 1 1-5.22-5.22 5.22 5.22 0 0 1 5.22 5.22z"/><circle id="eyeball-reflection" cx="362.49" cy="474.49" r="1.06" class="intro-cls-4"/><path d="M361.16 533.27v16h-5.26a25.69 25.69 0 0 1 3.52-13.66c.32-.53.63-1 .89-1.32a9.37 9.37 0 0 1 .85-1.02z" class="intro-cls-1"/><path id="face-detail" d="M382.37 549.26v-26.62s-8.76 8.55-8.76 26.62z" class="intro-cls-9"/><path d="M368.81 531.7v17.56h-13l-13.88-34.57h5.69c10.78 0 21.19 3.18 21.19 17.01z" class="intro-cls-4"/><path id="hind-white-spot" d="M238.61 409.22l-50.91-25.79h-56.76v-56.29c96.83 3.74 107.17 77.98 107.67 82.08z" class="intro-cls-4"/><path id="antler" d="M380.33 446.57v-44.72c0-9.86-4.4-14.7-13.34-14.7s-10.73-6.73-10.73-12.73v-65.59s-6.29 57.44-6.86 66.45-.36 17.78 10.79 19.07 10.62 3.22 10.62 16.08c0 22-.45 36.22-.45 36.22z" class="intro-cls-9"/><path id="leg-caramel" d="M203.63 443a9.3 9.3 0 0 1 3.4-7.19l-2-102.23 15.73 17.88-2 84.35a9.29 9.29 0 0 1 .24 14.29l1.85 106h-15.78l1.86-106a9.25 9.25 0 0 1-3.3-7.1z" class="intro-cls-7"/><path id="leg-detail" d="M220.8 556.13l-3.9-22.86-1.42 4.61-1.24-4.61-9.17 22.86h15.73z" class="intro-cls-4"/><path id="leg-detail-2" d="M219.03 556.13l-3.72-9.39-5.85 9.39h9.57z" class="intro-cls-9" data-name="leg-detail"/><path id="leg-detail-3" d="M292.35 556.13l-3.9-22.86-1.41 4.61-1.25-4.61-9.17 22.86h15.73z" class="intro-cls-4" data-name="leg-detail"/><path id="leg-detail-4" d="M290.58 556.13l-3.72-9.39-5.85 9.39h9.57z" class="intro-cls-9" data-name="leg-detail"/><path id="tail" d="M130.94 245.54s-16.74 2.6-16.74 22h16.74z" class="intro-cls-4"/><path fill="#f7e494" d="M360.31 533.66v15.6h-3.47a41.85 41.85 0 0 1 2.58-13.66 14.72 14.72 0 0 1 .89-1.94z"/></g><g id="Peacock"><path d="M538.87 393.6l4.44 237.19 2.05-236.94-6.49-.25zM551.29 393.6l4.44 237.19 2.05-236.94-6.49-.25z" class="intro-cls-12"/><path d="M643.99 394.12v148.04" class="intro-cls-13"/><path d="M631.84 563.52c0-6.7 12.13-15.64 12.13-15.64s12.13 8.94 12.13 15.64a12.13 12.13 0 0 1-24.26 0z" class="intro-cls-14"/><path d="M634 563.21c0-5.52 10-12.89 10-12.89s10 7.37 10 12.89a10 10 0 1 1-20 0z" class="intro-cls-12"/><path d="M635.83 562.94c0-4.5 8.14-10.5 8.14-10.5s8.15 6 8.15 10.5a8.15 8.15 0 1 1-16.29 0z" class="intro-cls-15"/><path d="M630.67 558.11l13.28-13.28 13.27 13.28" class="intro-cls-13"/><path d="M630.67 555.3l13.28-13.28 13.27 13.28" class="intro-cls-13"/><path d="M644.21 588.66a26.92 26.92 0 1 0-26.91-26.92 26.91 26.91 0 0 0 26.91 26.92z" class="intro-cls-16"/><path d="M644.21 592.53a30.79 30.79 0 1 0-30.79-30.79 30.79 30.79 0 0 0 30.79 30.79z" class="intro-cls-16"/><path d="M644.58 569.61A2.62 2.62 0 1 0 642 567a2.62 2.62 0 0 0 2.58 2.61z" class="intro-cls-17"/><path d="M469.87 118.39h12.42v53.28h-12.42z" class="intro-cls-12" transform="rotate(-47.14 476.12 145.03)"/><path d="M457.44 174.44s9.39 13.52 9.39 60.18 44.44 57.14 53.28 57.14h-76.19v-56.22c0-9.21 1.29-28.16-7.18-28.16M541.83 291.75a102.43 102.43 0 0 1 102.43 102.43H541.83" class="intro-cls-15"/><path d="M450.73 161.47c2.85-2.85 32.29-24.89 32.29-24.89s-19.14 32.35-22 35.19a7.28 7.28 0 0 1-10.3-10.3z" class="intro-cls-14"/><path d="M422.19 169.39c-8.69 8.69-28.37 59.84-28.37 59.84s51.14-19.69 59.83-28.38a22.25 22.25 0 0 0-31.46-31.46zM443.79 291.75a102.43 102.43 0 0 0 102.43 102.43V291.75" class="intro-cls-15"/><path d="M424.16 186.06c3.18-3.17 21.84-10.36 21.84-10.36s-7.19 18.68-10.36 21.85a8.12 8.12 0 1 1-11.49-11.49z" class="intro-cls-14"/><path d="M436.29 181.56c1.09-1.09 7.52-3.57 7.52-3.57s-2.48 6.43-3.57 7.53a2.8 2.8 0 1 1-3.95-4z" class="intro-cls-12"/><path d="M423.16 192.57a6 6 0 1 0 6-6 6 6 0 0 0-6 6z" class="intro-cls-4"/><path d="M424.52 192.57a4.63 4.63 0 1 0 4.63-4.64 4.63 4.63 0 0 0-4.63 4.64z" class="intro-cls-12"/><path d="M425.53 192.57a3.62 3.62 0 1 0 3.62-3.62 3.63 3.63 0 0 0-3.62 3.62z" class="intro-cls-17"/><path d="M429.15 191.68a.89.89 0 1 0 .89-.89.89.89 0 0 0-.89.89z" class="intro-cls-4"/><g clip-path="url(#clip-path-2)"><path d="M431.51 216.92l16.19-37.93-9.69 38.22-6.5-.29zM403.47 204.08l17.56 1.03-3.24 15.05-27.01 10.93 12.69-27.01z" class="intro-cls-4"/></g><path d="M405.53 208.64a18.11 18.11 0 0 1 3.11-1.47 18.11 18.11 0 0 1-1.47 3.11 1.16 1.16 0 0 1-1.64-1.64z" class="intro-cls-17"/><path d="M388.41 214.86h42.46v.91h-42.46z" class="intro-cls-17" transform="rotate(-42.04 409.66 215.31)"/><path d="M453.8 162.42h54.06v.91H453.8z" class="intro-cls-19" transform="rotate(-25.07 480.94 162.89)"/><path d="M501.32 147.83l-.44-.77-45.6 26 .43.76zM497.12 143.8l-.49-.71-42.21 29.06.48.71zM492.92 139.77l-.54-.66-38.83 32.17.55.65zM488.72 135.73l-.59-.59-35.44 35.27.6.59zM484.52 131.7l-.64-.54-32.05 38.38.65.54zM480.32 127.67l-.69-.48L451 168.67l.7.48zM476.13 123.64l-.75-.43-25.27 44.59.75.42zM471.93 119.6l-.81-.36-21.87 47.69.8.37zM467.73 115.57l-.86-.31-18.49 50.8.86.31z" class="intro-cls-19"/><path d="M464.92 115.09a2.44 2.44 0 1 0 2.8-2 2.43 2.43 0 0 0-2.8 2zM469.12 119.07a2.45 2.45 0 1 0 2.81-2 2.45 2.45 0 0 0-2.81 2zM473.33 123.05a2.44 2.44 0 1 0 2.81-2 2.45 2.45 0 0 0-2.81 2zM477.57 127.07a2.44 2.44 0 1 0 2.81-2 2.44 2.44 0 0 0-2.81 2zM481.79 131a2.44 2.44 0 1 0 2.8-2 2.44 2.44 0 0 0-2.8 2zM486 135a2.44 2.44 0 1 0 2.8-2 2.44 2.44 0 0 0-2.8 2zM490.31 139a2.44 2.44 0 1 0 2.8-2 2.44 2.44 0 0 0-2.8 2zM494.5 143.08a2.45 2.45 0 1 0 2.81-2 2.45 2.45 0 0 0-2.81 2zM498.74 147.1a2.45 2.45 0 1 0 2.81-2 2.44 2.44 0 0 0-2.81 2zM502.92 151.07a2.44 2.44 0 1 0 2.8-2 2.44 2.44 0 0 0-2.8 2z" class="intro-cls-14"/><path fill="#009345" stroke="#64b145" d="M546.22 394.18a102.43 102.43 0 0 1-102.43-102.43z"/><g id="concentric-lines-green"><path d="M504.84 346.78a64.11 64.11 0 0 1-14.11-13.94z" class="intro-cls-21"/><path d="M510.11 352a66.2 66.2 0 0 1-24.69-24.42l5.3 5.25 14.11 13.94z" class="intro-cls-21"/><path d="M513.81 355.65A67.65 67.65 0 0 1 481.75 324l3.67 3.63 5.3 5.25 14.11 13.94 5.25 5.2z" class="intro-cls-21"/><path d="M516.85 358.66A69.18 69.18 0 0 1 478.72 321l3 3 3.67 3.63 5.3 5.25 14.11 13.94 5.25 5.2 3.7 3.65z" class="intro-cls-21"/><path d="M519.52 361.3a70.64 70.64 0 0 1-43.48-43l2.68 2.65 3 3 3.67 3.63 5.3 5.25 14.11 13.94 5.25 5.2 3.7 3.65 3 3z" class="intro-cls-21"/><path d="M522 363.7a72.17 72.17 0 0 1-48.35-47.81l2.44 2.42 2.68 2.65 3 3 3.67 3.63 5.3 5.25 14.11 13.94 5.25 5.2 3.7 3.65 3 3 2.67 2.64z" class="intro-cls-21"/><path d="M524.2 365.93a73.73 73.73 0 0 1-52.84-52.24l2.24 2.2 2.44 2.42 2.68 2.65 3 3 3.67 3.63 5.3 5.25 14.11 13.94 5.25 5.2 3.7 3.65 3 3 2.67 2.64 2.43 2.4z" class="intro-cls-21"/><path d="M526.32 368a75.25 75.25 0 0 1-57.09-56.46l2.13 2.12 2.24 2.2 2.44 2.42 2.68 2.65 3 3 3.67 3.63 5.3 5.25 14.11 13.94 5.25 5.2 3.7 3.65 3 3 2.67 2.64 2.43 2.4 2.25 2.23z" class="intro-cls-21"/><path d="M528.32 370a76.74 76.74 0 0 1-61.09-60.4l2 2 2.13 2.12 2.24 2.2 2.44 2.42 2.68 2.65 3 3 3.67 3.63 5.3 5.25 14.11 13.94 5.25 5.2 3.7 3.65 3 3 2.67 2.64 2.43 2.4 2.25 2.23 2.12 2.1z" class="intro-cls-21"/><path d="M530.25 371.91a78.28 78.28 0 0 1-64.93-64.2l1.91 1.89 2 2 2.13 2.12 2.24 2.2 2.44 2.42 2.68 2.65 3 3 3.67 3.63 5.3 5.25 14.11 13.94 5.25 5.2 3.7 3.65 3 3 2.67 2.64 2.43 2.4 2.25 2.23 2.12 2.1 2 2z" class="intro-cls-21"/><path d="M532.1 373.74a79.82 79.82 0 0 1-68.63-67.86l1.85 1.83 1.91 1.89 2 2 2.13 2.12 2.24 2.2 2.44 2.42 2.68 2.65 3 3 3.67 3.63 5.3 5.25 14.11 13.94 5.25 5.2 3.7 3.65 3 3 2.67 2.64 2.43 2.4 2.25 2.23 2.12 2.1 2 2 1.93 1.91z" class="intro-cls-21"/><path d="M533.88 375.5a81.36 81.36 0 0 1-72.21-71.4l1.8 1.78 1.85 1.83 1.91 1.89 2 2 2.13 2.12 2.24 2.2 2.44 2.42 2.68 2.65 3 3 3.67 3.63 5.3 5.25 14.11 13.94 5.25 5.2 3.7 3.65 3 3 2.67 2.64 2.43 2.4 2.25 2.23 2.12 2.1 2 2 1.93 1.91 1.85 1.83z" class="intro-cls-21"/><path d="M535.62 377.22a82.88 82.88 0 0 1-75.68-74.83l1.73 1.71 1.8 1.78 1.85 1.83 1.91 1.89 2 2 2.13 2.12 2.24 2.2 2.44 2.42 2.68 2.65 3 3 3.67 3.63 5.3 5.25 14.11 13.94 5.25 5.2 3.7 3.65 3 3 2.67 2.64 2.43 2.4 2.25 2.23 2.12 2.1 2 2 1.93 1.91 1.85 1.83 1.78 1.76z" class="intro-cls-21"/><path d="M537.3 378.89a84.43 84.43 0 0 1-79-78.16l1.69 1.66 1.73 1.71 1.8 1.78 1.85 1.83 1.91 1.89 2 2 2.13 2.12 2.24 2.2 2.44 2.42 2.68 2.65 3 3 3.67 3.63 5.3 5.25 14.11 13.94 5.25 5.2 3.7 3.65 3 3 2.67 2.64 2.43 2.4 2.25 2.23 2.12 2.1 2 2 1.93 1.91 1.85 1.83 1.78 1.76 1.74 1.72z" class="intro-cls-21"/><path d="M539 380.52a86 86 0 0 1-82.37-81.44l1.66 1.65 1.69 1.66 1.73 1.71 1.8 1.78 1.85 1.83 1.91 1.89 2 2 2.13 2.12 2.24 2.2 2.44 2.42 2.68 2.65 3 3 3.67 3.63 5.3 5.25 14.11 13.94 5.25 5.2 3.7 3.65 3 3 2.67 2.64 2.43 2.4 2.25 2.23 2.12 2.1 2 2 1.93 1.91 1.85 1.83 1.78 1.76 1.74 1.72 1.68 1.67z" class="intro-cls-21"/><path d="M540.57 382.11A87.52 87.52 0 0 1 455 297.49l1.61 1.59 1.66 1.65 1.69 1.66 1.73 1.71 1.8 1.78 1.85 1.83 1.91 1.89 2 2 2.13 2.12 2.24 2.2 2.44 2.42 2.68 2.65 3 3 3.67 3.63 5.3 5.25 14.11 13.94 5.25 5.2 3.7 3.65 3 3 2.67 2.64 2.43 2.4 2.25 2.23 2.12 2.1 2 2 1.93 1.91 1.85 1.83 1.78 1.76 1.74 1.72 1.68 1.67 1.66 1.63z" class="intro-cls-21"/><path d="M542.16 383.69a89.08 89.08 0 0 1-88.76-87.77l1.58 1.57 1.61 1.59 1.66 1.65 1.69 1.66 1.73 1.71 1.8 1.78 1.85 1.83 1.91 1.89 2 2 2.13 2.12 2.24 2.2 2.44 2.42 2.68 2.65 3 3 3.67 3.63 5.3 5.25 14.11 13.94 5.25 5.2 3.7 3.65 3 3 2.67 2.64 2.43 2.4 2.25 2.23 2.12 2.1 2 2 1.93 1.91 1.85 1.83 1.78 1.76 1.74 1.72 1.68 1.67 1.66 1.63 1.61 1.59z" class="intro-cls-21"/><path d="M543.71 385.22h-1.24a90.63 90.63 0 0 1-90.63-90.63v-.22l1.56 1.53 1.58 1.57 1.61 1.59 1.66 1.65 1.69 1.66 1.73 1.71 1.8 1.78 1.85 1.83 1.91 1.89 2 2 2.13 2.12 2.24 2.2 2.44 2.42 2.68 2.65 3 3 3.67 3.63 5.3 5.25 14.11 13.94 5.25 5.2 3.7 3.65 3 3 2.67 2.64 2.43 2.4 2.25 2.23 2.12 2.1 2 2 1.93 1.91 1.85 1.83 1.78 1.76 1.74 1.72 1.68 1.67 1.66 1.63 1.61 1.59 1.59 1.58z" class="intro-cls-21"/><path d="M545.25 386.74c-.92 0-1.85.05-2.78.05a92.18 92.18 0 0 1-92.18-92.18v-1.74l1.53 1.52 1.56 1.53 1.58 1.57 1.61 1.59 1.66 1.65 1.69 1.66 1.73 1.71 1.8 1.78 1.85 1.83 1.91 1.89 2 2 2.13 2.12 2.24 2.2 2.44 2.42 2.68 2.65 3 3 3.67 3.63 5.3 5.25 14.11 13.94 5.25 5.2 3.7 3.65 3 3 2.67 2.64 2.43 2.4 2.25 2.23 2.12 2.1 2 2 1.93 1.91 1.85 1.83 1.78 1.76 1.74 1.72 1.68 1.67 1.66 1.63 1.61 1.59 1.59 1.58 1.55 1.53z" class="intro-cls-21"/><path d="M546.75 388.23c-1.42.07-2.84.1-4.28.1a93.72 93.72 0 0 1-93.73-93.72c0-1.08 0-2.16.06-3.23l1.51 1.49 1.53 1.52 1.56 1.53 1.58 1.57 1.61 1.59 1.66 1.65 1.69 1.66 1.73 1.71 1.8 1.78 1.85 1.83 1.91 1.89 2 2 2.13 2.12 2.24 2.2 2.44 2.42 2.68 2.65 3 3 3.67 3.63 5.3 5.25 14.11 13.94 5.25 5.2 3.7 3.65 3 3 2.67 2.64 2.43 2.4 2.25 2.23 2.12 2.1 2 2 1.93 1.91 1.85 1.83 1.78 1.76 1.74 1.72 1.68 1.67 1.66 1.63 1.61 1.59 1.59 1.58 1.55 1.53 1.54 1.52z" class="intro-cls-21"/><path d="M548.24 389.7c-1.91.12-3.83.18-5.77.18a95.27 95.27 0 0 1-95.27-95.27c0-1.58 0-3.15.11-4.7l1.49 1.47 1.51 1.49 1.53 1.52 1.56 1.53 1.58 1.57 1.61 1.59 1.66 1.65 1.69 1.66 1.73 1.71 1.8 1.78 1.85 1.83 1.91 1.89 2 2 2.13 2.12 2.24 2.2 2.44 2.42 2.68 2.65 3 3 3.67 3.63 5.3 5.25 14.11 13.94 5.25 5.2 3.7 3.65 3 3 2.67 2.64 2.43 2.4 2.25 2.23 2.12 2.1 2 2 1.93 1.91 1.85 1.83 1.78 1.76 1.74 1.72 1.68 1.67 1.66 1.63 1.61 1.59 1.59 1.58 1.55 1.53 1.54 1.52 1.5 1.49z" class="intro-cls-21"/><path d="M549.14 390.59c-65.34.82-104.4-46.8-102.43-101.28l.6.6 1.49 1.47 1.51 1.49 1.53 1.52 1.56 1.53 1.58 1.57 1.61 1.59 1.66 1.65 1.69 1.66 1.73 1.71 1.8 1.78 1.85 1.83 1.91 1.89 2 2 2.13 2.12 2.24 2.2 2.44 2.42 2.68 2.65 3 3 3.67 3.63 5.3 5.25 14.11 13.94 5.25 5.2 3.7 3.65 3 3 2.67 2.64 2.43 2.4 2.25 2.23 2.12 2.1 2 2 1.93 1.91 1.85 1.83 1.78 1.76 1.74 1.72 1.68 1.67 1.66 1.63 1.61 1.59 1.59 1.58 1.55 1.53 1.54 1.52 1.5 1.49 1.49 1.47z" class="intro-cls-21"/><path d="M549.14 390.59c-65.34.82-104.4-46.8-102.43-101.28l.6.6 1.49 1.47 1.51 1.49 1.53 1.52 1.56 1.53 1.58 1.57 1.61 1.59 1.66 1.65 1.69 1.66 1.73 1.71 1.8 1.78 1.85 1.83 1.91 1.89 2 2 2.13 2.12 2.24 2.2 2.44 2.42 2.68 2.65 3 3 3.67 3.63 5.3 5.25 14.11 13.94 5.25 5.2 3.7 3.65 3 3 2.67 2.64 2.43 2.4 2.25 2.23 2.12 2.1 2 2 1.93 1.91 1.85 1.83 1.78 1.76 1.74 1.72 1.68 1.67 1.66 1.63 1.61 1.59 1.59 1.58 1.55 1.53 1.54 1.52 1.5 1.49 1.49 1.47z" class="intro-cls-21"/></g><path d="M593.67 302.24H512a68.94 68.94 0 0 0 69 68.94h53.15" class="intro-cls-17"/><path d="M533.56 302.24h-33.68a28.44 28.44 0 0 0 28.45 28.44h21.92" class="intro-cls-4"/><path d="M602 302.24h-81.69a68.94 68.94 0 0 0 68.94 68.94h53.15" class="intro-cls-17"/><path d="M608.37 325.68h12a12 12 0 0 0-12-12h-54.94a12 12 0 0 0 12 12z" class="intro-cls-14"/><path d="M596.31 314.27h12a12 12 0 0 0-12-12h-54.93a12 12 0 0 0 12 12zM620.07 337.38h12a12 12 0 0 0-12-12h-54.93a12 12 0 0 0 12 12z" class="intro-cls-14"/><path d="M631.57 348.66h12a12 12 0 0 0-12-12h-54.93a12 12 0 0 0 12 12zM655.17 371h12a12 12 0 0 0-12-12h-54.93a12 12 0 0 0 12 12z" class="intro-cls-14"/><path d="M643.67 360.2h12a12 12 0 0 0-12-12h-54.93a12 12 0 0 0 12 12z" class="intro-cls-14"/><path d="M619 325.68h12a12 12 0 0 0-12-12h-54.94a12 12 0 0 0 12 12z" class="intro-cls-12"/><path d="M606.94 314.27h12a12 12 0 0 0-12-12H552a12 12 0 0 0 12 12zM630.7 337.38h12a12 12 0 0 0-12-12h-54.94a12 12 0 0 0 12 12z" class="intro-cls-12"/><path d="M642.2 348.66h12a12 12 0 0 0-12-12h-54.93a12 12 0 0 0 12 12zM665.8 371h12a12 12 0 0 0-12-12h-54.93a12 12 0 0 0 12 12z" class="intro-cls-12"/><path d="M654.29 360.2h12a12 12 0 0 0-12-12h-54.93a12 12 0 0 0 12 12z" class="intro-cls-12"/><path d="M630.22 325.68h12a12 12 0 0 0-12-12h-54.93a12 12 0 0 0 12 12z" class="intro-cls-4"/><path d="M618.17 314.27h12a12 12 0 0 0-12-12h-54.93a12 12 0 0 0 12 12zM641.92 337.38h12a12 12 0 0 0-12-12H587a12 12 0 0 0 12 12z" class="intro-cls-4"/><path d="M571.27 319.42h77.68v.85h-77.68zM558.94 307.64h77.68v.85h-77.68zM582.5 331.2h77.68v.85H582.5z" class="intro-cls-17"/><path d="M653.42 348.66h12a12 12 0 0 0-12-12h-54.93a12 12 0 0 0 12 12zM677 371h12a12 12 0 0 0-12-12h-54.91a12 12 0 0 0 12 12z" class="intro-cls-4"/><path d="M665.52 360.2h12a12 12 0 0 0-12-12h-54.93a12 12 0 0 0 12 12z" class="intro-cls-4"/><path id="light-purple-line" d="M595.38 342.75h77.68v.85h-77.68z" class="intro-cls-17"/><path id="light-purple-line-2" d="M618.02 364.29h77.68v.85h-77.68z" class="intro-cls-17" data-name="light-purple-line"/><path id="light-purple-line-3" d="M605.69 353.06h77.68v.85h-77.68z" class="intro-cls-17" data-name="light-purple-line"/><g id="green-concentric-lines-group"><path d="M573.16 436.52c6.7 0 15.63 12.13 15.63 12.13s-8.93 12.13-15.63 12.13a12.13 12.13 0 0 1 0-24.26z" class="intro-cls-14"/><path d="M573.47 438.66c5.52 0 12.88 10 12.88 10s-7.36 10-12.88 10a10 10 0 1 1 0-20z" class="intro-cls-12"/><path d="M643.81 399.83c0 56.72-49.3 108.22-106 108.22M643.81 399.28c0 128.71-104.35 233.05-233 233.05M643.81 399.28a168.3 168.3 0 0 1-168.29 168.29M643.81 399.28a49.44 49.44 0 0 1-49.45 49.44" class="intro-cls-13"/><path d="M573.73 440.51c4.5 0 10.5 8.14 10.5 8.14s-6 8.15-10.5 8.15a8.15 8.15 0 0 1 0-16.29z" class="intro-cls-15"/><path d="M578.57 435.35l13.27 13.28-13.27 13.27" class="intro-cls-13"/><path d="M581.38 435.35l13.27 13.28-13.27 13.27" class="intro-cls-13"/><path d="M516.61 495.83c6.7 0 15.64 12.13 15.64 12.13s-8.94 12.13-15.64 12.13a12.13 12.13 0 1 1 0-24.26z" class="intro-cls-14"/><path d="M516.92 498c5.52 0 12.89 10 12.89 10s-7.37 10-12.89 10a10 10 0 1 1 0-20z" class="intro-cls-12"/><path d="M517.19 499.81c4.5 0 10.49 8.15 10.49 8.15s-6 8.14-10.49 8.14a8.15 8.15 0 1 1 0-16.29z" class="intro-cls-15"/><path d="M522.02 494.65l13.28 13.28-13.28 13.28" class="intro-cls-13"/><path d="M524.83 494.65l13.28 13.28-13.28 13.28" class="intro-cls-13"/><path d="M454.26 555.42c6.7 0 15.64 12.13 15.64 12.13s-8.94 12.13-15.64 12.13a12.13 12.13 0 0 1 0-24.26z" class="intro-cls-14"/><path d="M454.57 557.55c5.52 0 12.88 10 12.88 10s-7.36 10-12.88 10a10 10 0 1 1 0-20z" class="intro-cls-12"/><path d="M454.84 559.4c4.5 0 10.49 8.15 10.49 8.15s-6 8.14-10.49 8.14a8.15 8.15 0 1 1 0-16.29z" class="intro-cls-15"/><path d="M459.67 554.25l13.27 13.27-13.27 13.28" class="intro-cls-13"/><path d="M462.48 554.25l13.28 13.27-13.28 13.28" class="intro-cls-13"/><path fill="#009345" d="M389.38 620.23c6.7 0 15.64 12.13 15.64 12.13s-8.94 12.13-15.64 12.13a12.13 12.13 0 0 1 0-24.26z"/><path d="M389.69 622.36c5.52 0 12.89 10 12.89 10s-7.37 10-12.89 10a10 10 0 0 1 0-20z" class="intro-cls-12"/><path d="M390 624.22c4.5 0 10.5 8.14 10.5 8.14s-6 8.14-10.5 8.14a8.14 8.14 0 1 1 0-16.28z" class="intro-cls-15"/><path d="M394.79 619.06l13.28 13.27-13.28 13.28" class="intro-cls-23"/><path d="M397.61 619.06l13.27 13.27-13.27 13.28" class="intro-cls-23"/></g><circle id="tail-circle-large" cx="574.64" cy="449.3" r="26.91" class="intro-cls-16" transform="rotate(-45 574.64 449.3)"/><path id="tail-circle-large-2" d="M543.85 449.3a30.79 30.79 0 1 0 30.79-30.79 30.8 30.8 0 0 0-30.79 30.79z" class="intro-cls-16" data-name="tail-circle-large"/><path id="tail-circle-large-3" d="M491.05 507.82A26.91 26.91 0 1 0 518 480.91a26.91 26.91 0 0 0-26.95 26.91z" class="intro-cls-16" data-name="tail-circle-large"/><path id="tail-circle-large-4" d="M487.17 507.82A30.79 30.79 0 1 0 518 477a30.8 30.8 0 0 0-30.83 30.82z" class="intro-cls-16" data-name="tail-circle-large"/><path id="tail-circle-large-5" d="M427.92 567.82a26.92 26.92 0 1 0 26.91-26.92 26.91 26.91 0 0 0-26.91 26.92z" class="intro-cls-16" data-name="tail-circle-large"/><circle id="tail-circle-large-6" cx="454.83" cy="567.82" r="30.79" class="intro-cls-16" data-name="tail-circle-large"/><circle id="tail-circle-large-7" cx="391.16" cy="632.6" r="26.91" class="intro-cls-16" data-name="tail-circle-large" transform="rotate(-45 391.15 632.6)"/><circle id="tail-circle-large-8" cx="391.16" cy="632.6" r="30.79" class="intro-cls-16" data-name="tail-circle-large"/><path id="tail-dot" d="M447.89 567.91a2.62 2.62 0 1 0 2.62-2.63 2.62 2.62 0 0 0-2.62 2.63z" class="intro-cls-17"/><path id="tail-dot-2" d="M383.29 633a2.62 2.62 0 1 0 2.62-2.62 2.62 2.62 0 0 0-2.62 2.62z" class="intro-cls-17" data-name="tail-dot"/><path id="tail-dot-3" d="M510.83 507.91a2.62 2.62 0 1 0 2.62-2.62 2.62 2.62 0 0 0-2.62 2.62z" class="intro-cls-17" data-name="tail-dot"/><path id="tail-dot-4" d="M567.42 448.83a2.62 2.62 0 1 0 2.62-2.62 2.62 2.62 0 0 0-2.62 2.62z" class="intro-cls-17" data-name="tail-dot"/><path id="tail-quarter-circle" d="M644.26 394.18v15.93a15.93 15.93 0 0 1-15.93-15.93z" class="intro-cls-14"/><path id="tail-quarter-circle-2" d="M644.26 394.18v12.06a12.07 12.07 0 0 1-12.07-12.06z" class="intro-cls-12" data-name="tail-quarter-circle"/><path d="M543.31 626.86a1.15 1.15 0 0 0-1.15 1.16 18.13 18.13 0 0 0 1.15 3.24 18 18 0 0 0 1.16-3.24 1.16 1.16 0 0 0-1.16-1.16zM538.11 626.86A1.16 1.16 0 0 0 537 628a18 18 0 0 0 1.16 3.24 18 18 0 0 0 1.16-3.24 1.16 1.16 0 0 0-1.21-1.14zM532.22 626.86a1.16 1.16 0 0 0-1.16 1.16 18 18 0 0 0 1.16 3.24 18 18 0 0 0 1.16-3.24 1.16 1.16 0 0 0-1.16-1.16zM566.87 626.86a1.16 1.16 0 0 0-1.16 1.16 18 18 0 0 0 1.16 3.24A18.13 18.13 0 0 0 568 628a1.15 1.15 0 0 0-1.13-1.14zM561.67 626.86a1.16 1.16 0 0 0-1.16 1.16 18 18 0 0 0 1.16 3.24 18.13 18.13 0 0 0 1.15-3.24 1.15 1.15 0 0 0-1.15-1.16zM555.78 626.86a1.16 1.16 0 0 0-1.16 1.16 18 18 0 0 0 1.16 3.24 18.13 18.13 0 0 0 1.15-3.24 1.15 1.15 0 0 0-1.15-1.16z" class="intro-cls-12"/><g id="white-lines-details"><path d="M499.41 301.95h70.29v.65h-70.29z" class="intro-cls-4" transform="rotate(-45.04 534.6 302.28)"/><path d="M495.8 314.38h70.29v.65H495.8z" class="intro-cls-4" transform="rotate(-45.02 530.9 314.7)"/><path d="M492.19 326.8h70.29v.65h-70.29z" class="intro-cls-4" transform="rotate(-45.09 527.28 327.12)"/><path d="M488.58 339.22h70.29v.65h-70.29z" class="intro-cls-4" transform="rotate(-45.06 523.74 339.55)"/></g></g></svg>